<svg xmlns="http://www.w3.org/2000/svg" width="1910" height="1000"><defs><clipPath id="a"><path d="M626 462h187v382H626Zm0 0"/></clipPath><clipPath id="b"><path d="M818.55 462.227c-105.046-1.2-191.171 83.101-192.37 188.289-1.2 105.187 82.988 191.43 188.035 192.629 105.047 1.199 191.172-83.098 192.37-188.286 1.2-105.191-82.987-191.433-188.034-192.632Zm-4.187 367.761c-97.789-1.117-176.16-81.406-175.043-179.324 1.114-97.922 81.293-176.394 179.082-175.277 97.79 1.113 176.157 81.398 175.043 179.32-1.113 97.922-81.293 176.398-179.086 175.281Zm0 0"/></clipPath><clipPath id="c"><path d="M626 462h199v382H626Zm0 0"/></clipPath><clipPath id="d"><path d="M818.55 462.227c-105.046-1.2-191.171 83.101-192.37 188.289-1.2 105.187 82.988 191.43 188.035 192.629 105.047 1.199 191.172-83.098 192.37-188.286 1.2-105.191-82.987-191.433-188.034-192.632Zm-4.187 367.761c-97.789-1.117-176.16-81.406-175.043-179.324 1.114-97.922 81.293-176.394 179.082-175.277 97.79 1.113 176.157 81.398 175.043 179.32-1.113 97.922-81.293 176.398-179.086 175.281Zm0 0"/></clipPath><clipPath id="e"><path d="M626 462h212v382H626Zm0 0"/></clipPath><clipPath id="f"><path d="M818.55 462.227c-105.046-1.2-191.171 83.101-192.37 188.289-1.2 105.187 82.988 191.43 188.035 192.629 105.047 1.199 191.172-83.098 192.37-188.286 1.2-105.191-82.987-191.433-188.034-192.632Zm-4.187 367.761c-97.789-1.117-176.16-81.406-175.043-179.324 1.114-97.922 81.293-176.394 179.082-175.277 97.79 1.113 176.157 81.398 175.043 179.32-1.113 97.922-81.293 176.398-179.086 175.281Zm0 0"/></clipPath><clipPath id="g"><path d="M626 462h224v382H626Zm0 0"/></clipPath><clipPath id="h"><path d="M818.55 462.227c-105.046-1.2-191.171 83.101-192.37 188.289-1.2 105.187 82.988 191.43 188.035 192.629 105.047 1.199 191.172-83.098 192.37-188.286 1.2-105.191-82.987-191.433-188.034-192.632Zm-4.187 367.761c-97.789-1.117-176.16-81.406-175.043-179.324 1.114-97.922 81.293-176.394 179.082-175.277 97.79 1.113 176.157 81.398 175.043 179.32-1.113 97.922-81.293 176.398-179.086 175.281Zm0 0"/></clipPath><clipPath id="i"><path d="M626 462h237v382H626Zm0 0"/></clipPath><clipPath id="j"><path d="M818.55 462.227c-105.046-1.2-191.171 83.101-192.37 188.289-1.2 105.187 82.988 191.43 188.035 192.629 105.047 1.199 191.172-83.098 192.37-188.286 1.2-105.191-82.987-191.433-188.034-192.632Zm-4.187 367.761c-97.789-1.117-176.16-81.406-175.043-179.324 1.114-97.922 81.293-176.394 179.082-175.277 97.79 1.113 176.157 81.398 175.043 179.32-1.113 97.922-81.293 176.398-179.086 175.281Zm0 0"/></clipPath><clipPath id="k"><path d="M626 462h249v382H626Zm0 0"/></clipPath><clipPath id="l"><path d="M818.55 462.227c-105.046-1.2-191.171 83.101-192.37 188.289-1.2 105.187 82.988 191.43 188.035 192.629 105.047 1.199 191.172-83.098 192.37-188.286 1.2-105.191-82.987-191.433-188.034-192.632Zm-4.187 367.761c-97.789-1.117-176.16-81.406-175.043-179.324 1.114-97.922 81.293-176.394 179.082-175.277 97.79 1.113 176.157 81.398 175.043 179.32-1.113 97.922-81.293 176.398-179.086 175.281Zm0 0"/></clipPath><clipPath id="m"><path d="M626 462h262v382H626Zm0 0"/></clipPath><clipPath id="n"><path d="M818.55 462.227c-105.046-1.2-191.171 83.101-192.37 188.289-1.2 105.187 82.988 191.43 188.035 192.629 105.047 1.199 191.172-83.098 192.37-188.286 1.2-105.191-82.987-191.433-188.034-192.632Zm-4.187 367.761c-97.789-1.117-176.16-81.406-175.043-179.324 1.114-97.922 81.293-176.394 179.082-175.277 97.79 1.113 176.157 81.398 175.043 179.32-1.113 97.922-81.293 176.398-179.086 175.281Zm0 0"/></clipPath><clipPath id="o"><path d="M626 462h274v382H626Zm0 0"/></clipPath><clipPath id="p"><path d="M818.55 462.227c-105.046-1.2-191.171 83.101-192.37 188.289-1.2 105.187 82.988 191.43 188.035 192.629 105.047 1.199 191.172-83.098 192.37-188.286 1.2-105.191-82.987-191.433-188.034-192.632Zm-4.187 367.761c-97.789-1.117-176.16-81.406-175.043-179.324 1.114-97.922 81.293-176.394 179.082-175.277 97.79 1.113 176.157 81.398 175.043 179.32-1.113 97.922-81.293 176.398-179.086 175.281Zm0 0"/></clipPath><clipPath id="q"><path d="M626 462h287v382H626Zm0 0"/></clipPath><clipPath id="r"><path d="M818.55 462.227c-105.046-1.2-191.171 83.101-192.37 188.289-1.2 105.187 82.988 191.43 188.035 192.629 105.047 1.199 191.172-83.098 192.37-188.286 1.2-105.191-82.987-191.433-188.034-192.632Zm-4.187 367.761c-97.789-1.117-176.16-81.406-175.043-179.324 1.114-97.922 81.293-176.394 179.082-175.277 97.79 1.113 176.157 81.398 175.043 179.32-1.113 97.922-81.293 176.398-179.086 175.281Zm0 0"/></clipPath><clipPath id="s"><path d="M626 462h299v382H626Zm0 0"/></clipPath><clipPath id="t"><path d="M818.55 462.227c-105.046-1.2-191.171 83.101-192.37 188.289-1.2 105.187 82.988 191.43 188.035 192.629 105.047 1.199 191.172-83.098 192.37-188.286 1.2-105.191-82.987-191.433-188.034-192.632Zm-4.187 367.761c-97.789-1.117-176.16-81.406-175.043-179.324 1.114-97.922 81.293-176.394 179.082-175.277 97.79 1.113 176.157 81.398 175.043 179.32-1.113 97.922-81.293 176.398-179.086 175.281Zm0 0"/></clipPath><clipPath id="u"><path d="M626 462h311v382H626Zm0 0"/></clipPath><clipPath id="v"><path d="M818.55 462.227c-105.046-1.2-191.171 83.101-192.37 188.289-1.2 105.187 82.988 191.43 188.035 192.629 105.047 1.199 191.172-83.098 192.37-188.286 1.2-105.191-82.987-191.433-188.034-192.632Zm-4.187 367.761c-97.789-1.117-176.16-81.406-175.043-179.324 1.114-97.922 81.293-176.394 179.082-175.277 97.79 1.113 176.157 81.398 175.043 179.32-1.113 97.922-81.293 176.398-179.086 175.281Zm0 0"/></clipPath><clipPath id="w"><path d="M626 462h324v382H626Zm0 0"/></clipPath><clipPath id="x"><path d="M818.55 462.227c-105.046-1.2-191.171 83.101-192.37 188.289-1.2 105.187 82.988 191.43 188.035 192.629 105.047 1.199 191.172-83.098 192.37-188.286 1.2-105.191-82.987-191.433-188.034-192.632Zm-4.187 367.761c-97.789-1.117-176.16-81.406-175.043-179.324 1.114-97.922 81.293-176.394 179.082-175.277 97.79 1.113 176.157 81.398 175.043 179.32-1.113 97.922-81.293 176.398-179.086 175.281Zm0 0"/></clipPath><clipPath id="y"><path d="M626 462h336v382H626Zm0 0"/></clipPath><clipPath id="z"><path d="M818.55 462.227c-105.046-1.2-191.171 83.101-192.37 188.289-1.2 105.187 82.988 191.43 188.035 192.629 105.047 1.199 191.172-83.098 192.37-188.286 1.2-105.191-82.987-191.433-188.034-192.632Zm-4.187 367.761c-97.789-1.117-176.16-81.406-175.043-179.324 1.114-97.922 81.293-176.394 179.082-175.277 97.79 1.113 176.157 81.398 175.043 179.32-1.113 97.922-81.293 176.398-179.086 175.281Zm0 0"/></clipPath><clipPath id="A"><path d="M626 462h349v382H626Zm0 0"/></clipPath><clipPath id="B"><path d="M818.55 462.227c-105.046-1.2-191.171 83.101-192.37 188.289-1.2 105.187 82.988 191.43 188.035 192.629 105.047 1.199 191.172-83.098 192.37-188.286 1.2-105.191-82.987-191.433-188.034-192.632Zm-4.187 367.761c-97.789-1.117-176.16-81.406-175.043-179.324 1.114-97.922 81.293-176.394 179.082-175.277 97.79 1.113 176.157 81.398 175.043 179.32-1.113 97.922-81.293 176.398-179.086 175.281Zm0 0"/></clipPath><clipPath id="C"><path d="M626 462h361v382H626Zm0 0"/></clipPath><clipPath id="D"><path d="M818.55 462.227c-105.046-1.2-191.171 83.101-192.37 188.289-1.2 105.187 82.988 191.43 188.035 192.629 105.047 1.199 191.172-83.098 192.37-188.286 1.2-105.191-82.987-191.433-188.034-192.632Zm-4.187 367.761c-97.789-1.117-176.16-81.406-175.043-179.324 1.114-97.922 81.293-176.394 179.082-175.277 97.79 1.113 176.157 81.398 175.043 179.32-1.113 97.922-81.293 176.398-179.086 175.281Zm0 0"/></clipPath><clipPath id="E"><path d="M626 462h374v382H626Zm0 0"/></clipPath><clipPath id="F"><path d="M818.55 462.227c-105.046-1.2-191.171 83.101-192.37 188.289-1.2 105.187 82.988 191.43 188.035 192.629 105.047 1.199 191.172-83.098 192.37-188.286 1.2-105.191-82.987-191.433-188.034-192.632Zm-4.187 367.761c-97.789-1.117-176.16-81.406-175.043-179.324 1.114-97.922 81.293-176.394 179.082-175.277 97.79 1.113 176.157 81.398 175.043 179.32-1.113 97.922-81.293 176.398-179.086 175.281Zm0 0"/></clipPath><clipPath id="G"><path d="M626 462h381v382H626Zm0 0"/></clipPath><clipPath id="H"><path d="M818.55 462.227c-105.046-1.2-191.171 83.101-192.37 188.289-1.2 105.187 82.988 191.43 188.035 192.629 105.047 1.199 191.172-83.098 192.37-188.286 1.2-105.191-82.987-191.433-188.034-192.632Zm-4.187 367.761c-97.789-1.117-176.16-81.406-175.043-179.324 1.114-97.922 81.293-176.394 179.082-175.277 97.79 1.113 176.157 81.398 175.043 179.32-1.113 97.922-81.293 176.398-179.086 175.281Zm0 0"/></clipPath><clipPath id="I"><path d="M629 462h378v382H629Zm0 0"/></clipPath><clipPath id="J"><path d="M818.55 462.227c-105.046-1.2-191.171 83.101-192.37 188.289-1.2 105.187 82.988 191.43 188.035 192.629 105.047 1.199 191.172-83.098 192.37-188.286 1.2-105.191-82.987-191.433-188.034-192.632Zm-4.187 367.761c-97.789-1.117-176.16-81.406-175.043-179.324 1.114-97.922 81.293-176.394 179.082-175.277 97.79 1.113 176.157 81.398 175.043 179.32-1.113 97.922-81.293 176.398-179.086 175.281Zm0 0"/></clipPath><clipPath id="K"><path d="M642 462h365v382H642Zm0 0"/></clipPath><clipPath id="L"><path d="M818.55 462.227c-105.046-1.2-191.171 83.101-192.37 188.289-1.2 105.187 82.988 191.43 188.035 192.629 105.047 1.199 191.172-83.098 192.37-188.286 1.2-105.191-82.987-191.433-188.034-192.632Zm-4.187 367.761c-97.789-1.117-176.16-81.406-175.043-179.324 1.114-97.922 81.293-176.394 179.082-175.277 97.79 1.113 176.157 81.398 175.043 179.32-1.113 97.922-81.293 176.398-179.086 175.281Zm0 0"/></clipPath><clipPath id="M"><path d="M654 462h353v382H654Zm0 0"/></clipPath><clipPath id="N"><path d="M818.55 462.227c-105.046-1.2-191.171 83.101-192.37 188.289-1.2 105.187 82.988 191.43 188.035 192.629 105.047 1.199 191.172-83.098 192.37-188.286 1.2-105.191-82.987-191.433-188.034-192.632Zm-4.187 367.761c-97.789-1.117-176.16-81.406-175.043-179.324 1.114-97.922 81.293-176.394 179.082-175.277 97.79 1.113 176.157 81.398 175.043 179.32-1.113 97.922-81.293 176.398-179.086 175.281Zm0 0"/></clipPath><clipPath id="O"><path d="M667 462h340v382H667Zm0 0"/></clipPath><clipPath id="P"><path d="M818.55 462.227c-105.046-1.2-191.171 83.101-192.37 188.289-1.2 105.187 82.988 191.43 188.035 192.629 105.047 1.199 191.172-83.098 192.37-188.286 1.2-105.191-82.987-191.433-188.034-192.632Zm-4.187 367.761c-97.789-1.117-176.16-81.406-175.043-179.324 1.114-97.922 81.293-176.394 179.082-175.277 97.79 1.113 176.157 81.398 175.043 179.32-1.113 97.922-81.293 176.398-179.086 175.281Zm0 0"/></clipPath><clipPath id="Q"><path d="M679 462h328v382H679Zm0 0"/></clipPath><clipPath id="R"><path d="M818.55 462.227c-105.046-1.2-191.171 83.101-192.37 188.289-1.2 105.187 82.988 191.43 188.035 192.629 105.047 1.199 191.172-83.098 192.37-188.286 1.2-105.191-82.987-191.433-188.034-192.632Zm-4.187 367.761c-97.789-1.117-176.16-81.406-175.043-179.324 1.114-97.922 81.293-176.394 179.082-175.277 97.79 1.113 176.157 81.398 175.043 179.32-1.113 97.922-81.293 176.398-179.086 175.281Zm0 0"/></clipPath><clipPath id="S"><path d="M692 462h315v382H692Zm0 0"/></clipPath><clipPath id="T"><path d="M818.55 462.227c-105.046-1.2-191.171 83.101-192.37 188.289-1.2 105.187 82.988 191.43 188.035 192.629 105.047 1.199 191.172-83.098 192.37-188.286 1.2-105.191-82.987-191.433-188.034-192.632Zm-4.187 367.761c-97.789-1.117-176.16-81.406-175.043-179.324 1.114-97.922 81.293-176.394 179.082-175.277 97.79 1.113 176.157 81.398 175.043 179.32-1.113 97.922-81.293 176.398-179.086 175.281Zm0 0"/></clipPath><clipPath id="U"><path d="M703 462h304v382H703Zm0 0"/></clipPath><clipPath id="V"><path d="M818.55 462.227c-105.046-1.2-191.171 83.101-192.37 188.289-1.2 105.187 82.988 191.43 188.035 192.629 105.047 1.199 191.172-83.098 192.37-188.286 1.2-105.191-82.987-191.433-188.034-192.632Zm-4.187 367.761c-97.789-1.117-176.16-81.406-175.043-179.324 1.114-97.922 81.293-176.394 179.082-175.277 97.79 1.113 176.157 81.398 175.043 179.32-1.113 97.922-81.293 176.398-179.086 175.281Zm0 0"/></clipPath><clipPath id="W"><path d="M715 462h292v382H715Zm0 0"/></clipPath><clipPath id="X"><path d="M818.55 462.227c-105.046-1.2-191.171 83.101-192.37 188.289-1.2 105.187 82.988 191.43 188.035 192.629 105.047 1.199 191.172-83.098 192.37-188.286 1.2-105.191-82.987-191.433-188.034-192.632Zm-4.187 367.761c-97.789-1.117-176.16-81.406-175.043-179.324 1.114-97.922 81.293-176.394 179.082-175.277 97.79 1.113 176.157 81.398 175.043 179.32-1.113 97.922-81.293 176.398-179.086 175.281Zm0 0"/></clipPath><clipPath id="Y"><path d="M728 462h279v382H728Zm0 0"/></clipPath><clipPath id="Z"><path d="M818.55 462.227c-105.046-1.2-191.171 83.101-192.37 188.289-1.2 105.187 82.988 191.43 188.035 192.629 105.047 1.199 191.172-83.098 192.37-188.286 1.2-105.191-82.987-191.433-188.034-192.632Zm-4.187 367.761c-97.789-1.117-176.16-81.406-175.043-179.324 1.114-97.922 81.293-176.394 179.082-175.277 97.79 1.113 176.157 81.398 175.043 179.32-1.113 97.922-81.293 176.398-179.086 175.281Zm0 0"/></clipPath><clipPath id="aa"><path d="M740 462h267v382H740Zm0 0"/></clipPath><clipPath id="ab"><path d="M818.55 462.227c-105.046-1.2-191.171 83.101-192.37 188.289-1.2 105.187 82.988 191.43 188.035 192.629 105.047 1.199 191.172-83.098 192.37-188.286 1.2-105.191-82.987-191.433-188.034-192.632Zm-4.187 367.761c-97.789-1.117-176.16-81.406-175.043-179.324 1.114-97.922 81.293-176.394 179.082-175.277 97.79 1.113 176.157 81.398 175.043 179.32-1.113 97.922-81.293 176.398-179.086 175.281Zm0 0"/></clipPath><clipPath id="ac"><path d="M753 462h254v382H753Zm0 0"/></clipPath><clipPath id="ad"><path d="M818.55 462.227c-105.046-1.2-191.171 83.101-192.37 188.289-1.2 105.187 82.988 191.43 188.035 192.629 105.047 1.199 191.172-83.098 192.37-188.286 1.2-105.191-82.987-191.433-188.034-192.632Zm-4.187 367.761c-97.789-1.117-176.16-81.406-175.043-179.324 1.114-97.922 81.293-176.394 179.082-175.277 97.79 1.113 176.157 81.398 175.043 179.32-1.113 97.922-81.293 176.398-179.086 175.281Zm0 0"/></clipPath><clipPath id="ae"><path d="M765 462h242v382H765Zm0 0"/></clipPath><clipPath id="af"><path d="M818.55 462.227c-105.046-1.2-191.171 83.101-192.37 188.289-1.2 105.187 82.988 191.43 188.035 192.629 105.047 1.199 191.172-83.098 192.37-188.286 1.2-105.191-82.987-191.433-188.034-192.632Zm-4.187 367.761c-97.789-1.117-176.16-81.406-175.043-179.324 1.114-97.922 81.293-176.394 179.082-175.277 97.79 1.113 176.157 81.398 175.043 179.32-1.113 97.922-81.293 176.398-179.086 175.281Zm0 0"/></clipPath><clipPath id="ag"><path d="M778 462h229v382H778Zm0 0"/></clipPath><clipPath id="ah"><path d="M818.55 462.227c-105.046-1.2-191.171 83.101-192.37 188.289-1.2 105.187 82.988 191.43 188.035 192.629 105.047 1.199 191.172-83.098 192.37-188.286 1.2-105.191-82.987-191.433-188.034-192.632Zm-4.187 367.761c-97.789-1.117-176.16-81.406-175.043-179.324 1.114-97.922 81.293-176.394 179.082-175.277 97.79 1.113 176.157 81.398 175.043 179.32-1.113 97.922-81.293 176.398-179.086 175.281Zm0 0"/></clipPath><clipPath id="ai"><path d="M790 462h217v382H790Zm0 0"/></clipPath><clipPath id="aj"><path d="M818.55 462.227c-105.046-1.2-191.171 83.101-192.37 188.289-1.2 105.187 82.988 191.43 188.035 192.629 105.047 1.199 191.172-83.098 192.37-188.286 1.2-105.191-82.987-191.433-188.034-192.632Zm-4.187 367.761c-97.789-1.117-176.16-81.406-175.043-179.324 1.114-97.922 81.293-176.394 179.082-175.277 97.79 1.113 176.157 81.398 175.043 179.32-1.113 97.922-81.293 176.398-179.086 175.281Zm0 0"/></clipPath><clipPath id="ak"><path d="M803 462h204v382H803Zm0 0"/></clipPath><clipPath id="al"><path d="M818.55 462.227c-105.046-1.2-191.171 83.101-192.37 188.289-1.2 105.187 82.988 191.43 188.035 192.629 105.047 1.199 191.172-83.098 192.37-188.286 1.2-105.191-82.987-191.433-188.034-192.632Zm-4.187 367.761c-97.789-1.117-176.16-81.406-175.043-179.324 1.114-97.922 81.293-176.394 179.082-175.277 97.79 1.113 176.157 81.398 175.043 179.32-1.113 97.922-81.293 176.398-179.086 175.281Zm0 0"/></clipPath><clipPath id="am"><path d="M815 462h192v382H815Zm0 0"/></clipPath><clipPath id="an"><path d="M818.55 462.227c-105.046-1.2-191.171 83.101-192.37 188.289-1.2 105.187 82.988 191.43 188.035 192.629 105.047 1.199 191.172-83.098 192.37-188.286 1.2-105.191-82.987-191.433-188.034-192.632Zm-4.187 367.761c-97.789-1.117-176.16-81.406-175.043-179.324 1.114-97.922 81.293-176.394 179.082-175.277 97.79 1.113 176.157 81.398 175.043 179.32-1.113 97.922-81.293 176.398-179.086 175.281Zm0 0"/></clipPath><clipPath id="ao"><path d="M828 462h179v382H828Zm0 0"/></clipPath><clipPath id="ap"><path d="M818.55 462.227c-105.046-1.2-191.171 83.101-192.37 188.289-1.2 105.187 82.988 191.43 188.035 192.629 105.047 1.199 191.172-83.098 192.37-188.286 1.2-105.191-82.987-191.433-188.034-192.632Zm-4.187 367.761c-97.789-1.117-176.16-81.406-175.043-179.324 1.114-97.922 81.293-176.394 179.082-175.277 97.79 1.113 176.157 81.398 175.043 179.32-1.113 97.922-81.293 176.398-179.086 175.281Zm0 0"/></clipPath><clipPath id="aq"><path d="M840 462h167v382H840Zm0 0"/></clipPath><clipPath id="ar"><path d="M818.55 462.227c-105.046-1.2-191.171 83.101-192.37 188.289-1.2 105.187 82.988 191.43 188.035 192.629 105.047 1.199 191.172-83.098 192.37-188.286 1.2-105.191-82.987-191.433-188.034-192.632Zm-4.187 367.761c-97.789-1.117-176.16-81.406-175.043-179.324 1.114-97.922 81.293-176.394 179.082-175.277 97.79 1.113 176.157 81.398 175.043 179.32-1.113 97.922-81.293 176.398-179.086 175.281Zm0 0"/></clipPath><clipPath id="as"><path d="M853 462h154v382H853Zm0 0"/></clipPath><clipPath id="at"><path d="M818.55 462.227c-105.046-1.2-191.171 83.101-192.37 188.289-1.2 105.187 82.988 191.43 188.035 192.629 105.047 1.199 191.172-83.098 192.37-188.286 1.2-105.191-82.987-191.433-188.034-192.632Zm-4.187 367.761c-97.789-1.117-176.16-81.406-175.043-179.324 1.114-97.922 81.293-176.394 179.082-175.277 97.79 1.113 176.157 81.398 175.043 179.32-1.113 97.922-81.293 176.398-179.086 175.281Zm0 0"/></clipPath><clipPath id="au"><path d="M865 462h142v382H865Zm0 0"/></clipPath><clipPath id="av"><path d="M818.55 462.227c-105.046-1.2-191.171 83.101-192.37 188.289-1.2 105.187 82.988 191.43 188.035 192.629 105.047 1.199 191.172-83.098 192.37-188.286 1.2-105.191-82.987-191.433-188.034-192.632Zm-4.187 367.761c-97.789-1.117-176.16-81.406-175.043-179.324 1.114-97.922 81.293-176.394 179.082-175.277 97.79 1.113 176.157 81.398 175.043 179.32-1.113 97.922-81.293 176.398-179.086 175.281Zm0 0"/></clipPath><clipPath id="aw"><path d="M878 462h129v382H878Zm0 0"/></clipPath><clipPath id="ax"><path d="M818.55 462.227c-105.046-1.2-191.171 83.101-192.37 188.289-1.2 105.187 82.988 191.43 188.035 192.629 105.047 1.199 191.172-83.098 192.37-188.286 1.2-105.191-82.987-191.433-188.034-192.632Zm-4.187 367.761c-97.789-1.117-176.16-81.406-175.043-179.324 1.114-97.922 81.293-176.394 179.082-175.277 97.79 1.113 176.157 81.398 175.043 179.32-1.113 97.922-81.293 176.398-179.086 175.281Zm0 0"/></clipPath><clipPath id="ay"><path d="M1055 147h207v221h-207Zm0 0"/></clipPath><clipPath id="az"><path d="M1260.945 171.484c-3.082-7.492-15.168-23.84-61.918-23.84-46.754 0-58.84 16.348-61.922 23.84a13.902 13.902 0 0 0-1.039 5.313v40.808h69.614v12.532H1097.03s-41.734-3.055-41.734 68.582c0 71.636 41.734 68.582 41.734 68.582h22.68l3.57.02v-34.06c0-26.609 21.543-48.183 48.117-48.179h59.309c17.273-.004 31.273-14.023 31.273-31.32v-76.965a13.972 13.972 0 0 0-1.035-5.313Zm-96.113 29.309c-6.922 0-12.531-5.617-12.531-12.55 0-6.93 5.61-12.548 12.531-12.548 6.922 0 12.531 5.618 12.531 12.551 0 6.93-5.61 12.547-12.531 12.547Zm0 0"/></clipPath><clipPath id="aA"><path d="M1061 147h201v221h-201Zm0 0"/></clipPath><clipPath id="aB"><path d="M1260.945 171.484c-3.082-7.492-15.168-23.84-61.918-23.84-46.754 0-58.84 16.348-61.922 23.84a13.902 13.902 0 0 0-1.039 5.313v40.808h69.614v12.532H1097.03s-41.734-3.055-41.734 68.582c0 71.636 41.734 68.582 41.734 68.582h22.68l3.57.02v-34.06c0-26.609 21.543-48.183 48.117-48.179h59.309c17.273-.004 31.273-14.023 31.273-31.32v-76.965a13.972 13.972 0 0 0-1.035-5.313Zm-96.113 29.309c-6.922 0-12.531-5.617-12.531-12.55 0-6.93 5.61-12.548 12.531-12.548 6.922 0 12.531 5.618 12.531 12.551 0 6.93-5.61 12.547-12.531 12.547Zm0 0"/></clipPath><clipPath id="aC"><path d="M1369 460h306v148h-306Zm0 0"/></clipPath><clipPath id="aD"><path d="M1674.91 534.133c0 40.629-68.285 73.562-152.515 73.562-84.235 0-152.52-32.933-152.52-73.562 0-40.625 68.285-73.559 152.52-73.559 84.23 0 152.515 32.934 152.515 73.559Zm0 0"/></clipPath><clipPath id="aE"><path d="M1377 460h298v148h-298Zm0 0"/></clipPath><clipPath id="aF"><path d="M1674.91 534.133c0 40.629-68.285 73.562-152.515 73.562-84.235 0-152.52-32.933-152.52-73.562 0-40.625 68.285-73.559 152.52-73.559 84.23 0 152.515 32.934 152.515 73.559Zm0 0"/></clipPath><clipPath id="aG"><path d="M1390 460h285v148h-285Zm0 0"/></clipPath><clipPath id="aH"><path d="M1674.91 534.133c0 40.629-68.285 73.562-152.515 73.562-84.235 0-152.52-32.933-152.52-73.562 0-40.625 68.285-73.559 152.52-73.559 84.23 0 152.515 32.934 152.515 73.559Zm0 0"/></clipPath><clipPath id="aI"><path d="M1402 460h273v148h-273Zm0 0"/></clipPath><clipPath id="aJ"><path d="M1674.91 534.133c0 40.629-68.285 73.562-152.515 73.562-84.235 0-152.52-32.933-152.52-73.562 0-40.625 68.285-73.559 152.52-73.559 84.23 0 152.515 32.934 152.515 73.559Zm0 0"/></clipPath><clipPath id="aK"><path d="M1415 460h260v148h-260Zm0 0"/></clipPath><clipPath id="aL"><path d="M1674.91 534.133c0 40.629-68.285 73.562-152.515 73.562-84.235 0-152.52-32.933-152.52-73.562 0-40.625 68.285-73.559 152.52-73.559 84.23 0 152.515 32.934 152.515 73.559Zm0 0"/></clipPath><clipPath id="aM"><path d="M1427 460h248v148h-248Zm0 0"/></clipPath><clipPath id="aN"><path d="M1674.91 534.133c0 40.629-68.285 73.562-152.515 73.562-84.235 0-152.52-32.933-152.52-73.562 0-40.625 68.285-73.559 152.52-73.559 84.23 0 152.515 32.934 152.515 73.559Zm0 0"/></clipPath><clipPath id="aO"><path d="M1439 460h236v148h-236Zm0 0"/></clipPath><clipPath id="aP"><path d="M1674.91 534.133c0 40.629-68.285 73.562-152.515 73.562-84.235 0-152.52-32.933-152.52-73.562 0-40.625 68.285-73.559 152.52-73.559 84.23 0 152.515 32.934 152.515 73.559Zm0 0"/></clipPath><clipPath id="aQ"><path d="M1452 460h223v148h-223Zm0 0"/></clipPath><clipPath id="aR"><path d="M1674.91 534.133c0 40.629-68.285 73.562-152.515 73.562-84.235 0-152.52-32.933-152.52-73.562 0-40.625 68.285-73.559 152.52-73.559 84.23 0 152.515 32.934 152.515 73.559Zm0 0"/></clipPath><clipPath id="aS"><path d="M1464 460h211v148h-211Zm0 0"/></clipPath><clipPath id="aT"><path d="M1674.91 534.133c0 40.629-68.285 73.562-152.515 73.562-84.235 0-152.52-32.933-152.52-73.562 0-40.625 68.285-73.559 152.52-73.559 84.23 0 152.515 32.934 152.515 73.559Zm0 0"/></clipPath><clipPath id="aU"><path d="M1477 460h198v148h-198Zm0 0"/></clipPath><clipPath id="aV"><path d="M1674.91 534.133c0 40.629-68.285 73.562-152.515 73.562-84.235 0-152.52-32.933-152.52-73.562 0-40.625 68.285-73.559 152.52-73.559 84.23 0 152.515 32.934 152.515 73.559Zm0 0"/></clipPath><clipPath id="aW"><path d="M1489 460h186v148h-186Zm0 0"/></clipPath><clipPath id="aX"><path d="M1674.91 534.133c0 40.629-68.285 73.562-152.515 73.562-84.235 0-152.52-32.933-152.52-73.562 0-40.625 68.285-73.559 152.52-73.559 84.23 0 152.515 32.934 152.515 73.559Zm0 0"/></clipPath><clipPath id="aY"><path d="M1502 460h173v148h-173Zm0 0"/></clipPath><clipPath id="aZ"><path d="M1674.91 534.133c0 40.629-68.285 73.562-152.515 73.562-84.235 0-152.52-32.933-152.52-73.562 0-40.625 68.285-73.559 152.52-73.559 84.23 0 152.515 32.934 152.515 73.559Zm0 0"/></clipPath><clipPath id="ba"><path d="M1514 460h161v148h-161Zm0 0"/></clipPath><clipPath id="bb"><path d="M1674.91 534.133c0 40.629-68.285 73.562-152.515 73.562-84.235 0-152.52-32.933-152.52-73.562 0-40.625 68.285-73.559 152.52-73.559 84.23 0 152.515 32.934 152.515 73.559Zm0 0"/></clipPath><clipPath id="bc"><path d="M1527 460h148v148h-148Zm0 0"/></clipPath><clipPath id="bd"><path d="M1674.91 534.133c0 40.629-68.285 73.562-152.515 73.562-84.235 0-152.52-32.933-152.52-73.562 0-40.625 68.285-73.559 152.52-73.559 84.23 0 152.515 32.934 152.515 73.559Zm0 0"/></clipPath><clipPath id="be"><path d="M1539 460h136v148h-136Zm0 0"/></clipPath><clipPath id="bf"><path d="M1674.91 534.133c0 40.629-68.285 73.562-152.515 73.562-84.235 0-152.52-32.933-152.52-73.562 0-40.625 68.285-73.559 152.52-73.559 84.23 0 152.515 32.934 152.515 73.559Zm0 0"/></clipPath><clipPath id="bg"><path d="M1552 460h123v148h-123Zm0 0"/></clipPath><clipPath id="bh"><path d="M1674.91 534.133c0 40.629-68.285 73.562-152.515 73.562-84.235 0-152.52-32.933-152.52-73.562 0-40.625 68.285-73.559 152.52-73.559 84.23 0 152.515 32.934 152.515 73.559Zm0 0"/></clipPath><clipPath id="bi"><path d="M1379 651h287v106h-287Zm0 0"/></clipPath><clipPath id="bj"><path d="M1522.39 696.684c-62.245 0-115.5-17.907-142.828-45.141v40.887c4.325 35.562 68.184 64.41 142.829 64.41 74.648 0 138.507-28.848 142.832-64.41v-40.887c-27.325 27.23-80.582 45.14-142.832 45.14Zm104.766 23.351c-9.879 0-17.89-8.023-17.89-17.918 0-9.898 8.011-17.918 17.894-17.918 9.88 0 17.89 8.02 17.89 17.918 0 9.895-8.01 17.918-17.894 17.918Zm0 0"/></clipPath><clipPath id="bk"><path d="M1387 651h279v106h-279Zm0 0"/></clipPath><clipPath id="bl"><path d="M1522.39 696.684c-62.245 0-115.5-17.907-142.828-45.141v40.887c4.325 35.562 68.184 64.41 142.829 64.41 74.648 0 138.507-28.848 142.832-64.41v-40.887c-27.325 27.23-80.582 45.14-142.832 45.14Zm104.766 23.351c-9.879 0-17.89-8.023-17.89-17.918 0-9.898 8.011-17.918 17.894-17.918 9.88 0 17.89 8.02 17.89 17.918 0 9.895-8.01 17.918-17.894 17.918Zm0 0"/></clipPath><clipPath id="bm"><path d="M1399 651h267v106h-267Zm0 0"/></clipPath><clipPath id="bn"><path d="M1522.39 696.684c-62.245 0-115.5-17.907-142.828-45.141v40.887c4.325 35.562 68.184 64.41 142.829 64.41 74.648 0 138.507-28.848 142.832-64.41v-40.887c-27.325 27.23-80.582 45.14-142.832 45.14Zm104.766 23.351c-9.879 0-17.89-8.023-17.89-17.918 0-9.898 8.011-17.918 17.894-17.918 9.88 0 17.89 8.02 17.89 17.918 0 9.895-8.01 17.918-17.894 17.918Zm0 0"/></clipPath><clipPath id="bo"><path d="M1411 651h255v106h-255Zm0 0"/></clipPath><clipPath id="bp"><path d="M1522.39 696.684c-62.245 0-115.5-17.907-142.828-45.141v40.887c4.325 35.562 68.184 64.41 142.829 64.41 74.648 0 138.507-28.848 142.832-64.41v-40.887c-27.325 27.23-80.582 45.14-142.832 45.14Zm104.766 23.351c-9.879 0-17.89-8.023-17.89-17.918 0-9.898 8.011-17.918 17.894-17.918 9.88 0 17.89 8.02 17.89 17.918 0 9.895-8.01 17.918-17.894 17.918Zm0 0"/></clipPath><clipPath id="bq"><path d="M1424 651h242v106h-242Zm0 0"/></clipPath><clipPath id="br"><path d="M1522.39 696.684c-62.245 0-115.5-17.907-142.828-45.141v40.887c4.325 35.562 68.184 64.41 142.829 64.41 74.648 0 138.507-28.848 142.832-64.41v-40.887c-27.325 27.23-80.582 45.14-142.832 45.14Zm104.766 23.351c-9.879 0-17.89-8.023-17.89-17.918 0-9.898 8.011-17.918 17.894-17.918 9.88 0 17.89 8.02 17.89 17.918 0 9.895-8.01 17.918-17.894 17.918Zm0 0"/></clipPath><clipPath id="bs"><path d="M1436 651h230v106h-230Zm0 0"/></clipPath><clipPath id="bt"><path d="M1522.39 696.684c-62.245 0-115.5-17.907-142.828-45.141v40.887c4.325 35.562 68.184 64.41 142.829 64.41 74.648 0 138.507-28.848 142.832-64.41v-40.887c-27.325 27.23-80.582 45.14-142.832 45.14Zm104.766 23.351c-9.879 0-17.89-8.023-17.89-17.918 0-9.898 8.011-17.918 17.894-17.918 9.88 0 17.89 8.02 17.89 17.918 0 9.895-8.01 17.918-17.894 17.918Zm0 0"/></clipPath><clipPath id="bu"><path d="M1449 651h217v106h-217Zm0 0"/></clipPath><clipPath id="bv"><path d="M1522.39 696.684c-62.245 0-115.5-17.907-142.828-45.141v40.887c4.325 35.562 68.184 64.41 142.829 64.41 74.648 0 138.507-28.848 142.832-64.41v-40.887c-27.325 27.23-80.582 45.14-142.832 45.14Zm104.766 23.351c-9.879 0-17.89-8.023-17.89-17.918 0-9.898 8.011-17.918 17.894-17.918 9.88 0 17.89 8.02 17.89 17.918 0 9.895-8.01 17.918-17.894 17.918Zm0 0"/></clipPath><clipPath id="bw"><path d="M1461 651h205v106h-205Zm0 0"/></clipPath><clipPath id="bx"><path d="M1522.39 696.684c-62.245 0-115.5-17.907-142.828-45.141v40.887c4.325 35.562 68.184 64.41 142.829 64.41 74.648 0 138.507-28.848 142.832-64.41v-40.887c-27.325 27.23-80.582 45.14-142.832 45.14Zm104.766 23.351c-9.879 0-17.89-8.023-17.89-17.918 0-9.898 8.011-17.918 17.894-17.918 9.88 0 17.89 8.02 17.89 17.918 0 9.895-8.01 17.918-17.894 17.918Zm0 0"/></clipPath><clipPath id="by"><path d="M1474 651h192v106h-192Zm0 0"/></clipPath><clipPath id="bz"><path d="M1522.39 696.684c-62.245 0-115.5-17.907-142.828-45.141v40.887c4.325 35.562 68.184 64.41 142.829 64.41 74.648 0 138.507-28.848 142.832-64.41v-40.887c-27.325 27.23-80.582 45.14-142.832 45.14Zm104.766 23.351c-9.879 0-17.89-8.023-17.89-17.918 0-9.898 8.011-17.918 17.894-17.918 9.88 0 17.89 8.02 17.89 17.918 0 9.895-8.01 17.918-17.894 17.918Zm0 0"/></clipPath><clipPath id="bA"><path d="M1486 651h180v106h-180Zm0 0"/></clipPath><clipPath id="bB"><path d="M1522.39 696.684c-62.245 0-115.5-17.907-142.828-45.141v40.887c4.325 35.562 68.184 64.41 142.829 64.41 74.648 0 138.507-28.848 142.832-64.41v-40.887c-27.325 27.23-80.582 45.14-142.832 45.14Zm104.766 23.351c-9.879 0-17.89-8.023-17.89-17.918 0-9.898 8.011-17.918 17.894-17.918 9.88 0 17.89 8.02 17.89 17.918 0 9.895-8.01 17.918-17.894 17.918Zm0 0"/></clipPath><clipPath id="bC"><path d="M1499 651h167v106h-167Zm0 0"/></clipPath><clipPath id="bD"><path d="M1522.39 696.684c-62.245 0-115.5-17.907-142.828-45.141v40.887c4.325 35.562 68.184 64.41 142.829 64.41 74.648 0 138.507-28.848 142.832-64.41v-40.887c-27.325 27.23-80.582 45.14-142.832 45.14Zm104.766 23.351c-9.879 0-17.89-8.023-17.89-17.918 0-9.898 8.011-17.918 17.894-17.918 9.88 0 17.89 8.02 17.89 17.918 0 9.895-8.01 17.918-17.894 17.918Zm0 0"/></clipPath><clipPath id="bE"><path d="M1511 651h155v106h-155Zm0 0"/></clipPath><clipPath id="bF"><path d="M1522.39 696.684c-62.245 0-115.5-17.907-142.828-45.141v40.887c4.325 35.562 68.184 64.41 142.829 64.41 74.648 0 138.507-28.848 142.832-64.41v-40.887c-27.325 27.23-80.582 45.14-142.832 45.14Zm104.766 23.351c-9.879 0-17.89-8.023-17.89-17.918 0-9.898 8.011-17.918 17.894-17.918 9.88 0 17.89 8.02 17.89 17.918 0 9.895-8.01 17.918-17.894 17.918Zm0 0"/></clipPath><clipPath id="bG"><path d="M1524 651h142v106h-142Zm0 0"/></clipPath><clipPath id="bH"><path d="M1522.39 696.684c-62.245 0-115.5-17.907-142.828-45.141v40.887c4.325 35.562 68.184 64.41 142.829 64.41 74.648 0 138.507-28.848 142.832-64.41v-40.887c-27.325 27.23-80.582 45.14-142.832 45.14Zm104.766 23.351c-9.879 0-17.89-8.023-17.89-17.918 0-9.898 8.011-17.918 17.894-17.918 9.88 0 17.89 8.02 17.89 17.918 0 9.895-8.01 17.918-17.894 17.918Zm0 0"/></clipPath><clipPath id="bI"><path d="M1536 651h130v106h-130Zm0 0"/></clipPath><clipPath id="bJ"><path d="M1522.39 696.684c-62.245 0-115.5-17.907-142.828-45.141v40.887c4.325 35.562 68.184 64.41 142.829 64.41 74.648 0 138.507-28.848 142.832-64.41v-40.887c-27.325 27.23-80.582 45.14-142.832 45.14Zm104.766 23.351c-9.879 0-17.89-8.023-17.89-17.918 0-9.898 8.011-17.918 17.894-17.918 9.88 0 17.89 8.02 17.89 17.918 0 9.895-8.01 17.918-17.894 17.918Zm0 0"/></clipPath><clipPath id="bK"><path d="M1549 651h117v106h-117Zm0 0"/></clipPath><clipPath id="bL"><path d="M1522.39 696.684c-62.245 0-115.5-17.907-142.828-45.141v40.887c4.325 35.562 68.184 64.41 142.829 64.41 74.648 0 138.507-28.848 142.832-64.41v-40.887c-27.325 27.23-80.582 45.14-142.832 45.14Zm104.766 23.351c-9.879 0-17.89-8.023-17.89-17.918 0-9.898 8.011-17.918 17.894-17.918 9.88 0 17.89 8.02 17.89 17.918 0 9.895-8.01 17.918-17.894 17.918Zm0 0"/></clipPath><clipPath id="bM"><path d="M687 627h156v133H687Zm0 0"/></clipPath><clipPath id="bN"><path d="M842.625 646.98S828 690.82 795.098 719.746a383.38 383.38 0 0 1-50.551 39.32l-57.32-88.832s30.363-28.496 140.816-42.976Zm0 0"/></clipPath><clipPath id="bO"><path d="M234 147h218v76H234Zm0 0"/></clipPath><clipPath id="bP"><path d="M659.164 147.645H292.54c-31.86 0-57.687 25.863-57.687 57.765v16.809h482V205.41c0-31.902-25.829-57.765-57.688-57.765Zm-371.39 56.738c-6.848 0-12.399-5.559-12.399-12.418 0-6.856 5.55-12.414 12.398-12.414 6.844 0 12.399 5.558 12.399 12.414 0 6.86-5.555 12.418-12.399 12.418Zm43.351 0c-6.848 0-12.398-5.559-12.398-12.418 0-6.856 5.55-12.414 12.398-12.414s12.398 5.558 12.398 12.414c0 6.86-5.55 12.418-12.398 12.418Zm43.355 0c-6.847 0-12.398-5.559-12.398-12.418 0-6.856 5.55-12.414 12.398-12.414s12.399 5.558 12.399 12.414c0 6.86-5.55 12.418-12.399 12.418Zm0 0"/></clipPath><clipPath id="bQ"><path d="M234 147h230v76H234Zm0 0"/></clipPath><clipPath id="bR"><path d="M659.164 147.645H292.54c-31.86 0-57.687 25.863-57.687 57.765v16.809h482V205.41c0-31.902-25.829-57.765-57.688-57.765Zm-371.39 56.738c-6.848 0-12.399-5.559-12.399-12.418 0-6.856 5.55-12.414 12.398-12.414 6.844 0 12.399 5.558 12.399 12.414 0 6.86-5.555 12.418-12.399 12.418Zm43.351 0c-6.848 0-12.398-5.559-12.398-12.418 0-6.856 5.55-12.414 12.398-12.414s12.398 5.558 12.398 12.414c0 6.86-5.55 12.418-12.398 12.418Zm43.355 0c-6.847 0-12.398-5.559-12.398-12.418 0-6.856 5.55-12.414 12.398-12.414s12.399 5.558 12.399 12.414c0 6.86-5.55 12.418-12.399 12.418Zm0 0"/></clipPath><clipPath id="bS"><path d="M234 147h243v76H234Zm0 0"/></clipPath><clipPath id="bT"><path d="M659.164 147.645H292.54c-31.86 0-57.687 25.863-57.687 57.765v16.809h482V205.41c0-31.902-25.829-57.765-57.688-57.765Zm-371.39 56.738c-6.848 0-12.399-5.559-12.399-12.418 0-6.856 5.55-12.414 12.398-12.414 6.844 0 12.399 5.558 12.399 12.414 0 6.86-5.555 12.418-12.399 12.418Zm43.351 0c-6.848 0-12.398-5.559-12.398-12.418 0-6.856 5.55-12.414 12.398-12.414s12.398 5.558 12.398 12.414c0 6.86-5.55 12.418-12.398 12.418Zm43.355 0c-6.847 0-12.398-5.559-12.398-12.418 0-6.856 5.55-12.414 12.398-12.414s12.399 5.558 12.399 12.414c0 6.86-5.55 12.418-12.399 12.418Zm0 0"/></clipPath><clipPath id="bU"><path d="M234 147h255v76H234Zm0 0"/></clipPath><clipPath id="bV"><path d="M659.164 147.645H292.54c-31.86 0-57.687 25.863-57.687 57.765v16.809h482V205.41c0-31.902-25.829-57.765-57.688-57.765Zm-371.39 56.738c-6.848 0-12.399-5.559-12.399-12.418 0-6.856 5.55-12.414 12.398-12.414 6.844 0 12.399 5.558 12.399 12.414 0 6.86-5.555 12.418-12.399 12.418Zm43.351 0c-6.848 0-12.398-5.559-12.398-12.418 0-6.856 5.55-12.414 12.398-12.414s12.398 5.558 12.398 12.414c0 6.86-5.55 12.418-12.398 12.418Zm43.355 0c-6.847 0-12.398-5.559-12.398-12.418 0-6.856 5.55-12.414 12.398-12.414s12.399 5.558 12.399 12.414c0 6.86-5.55 12.418-12.399 12.418Zm0 0"/></clipPath><clipPath id="bW"><path d="M234 147h268v76H234Zm0 0"/></clipPath><clipPath id="bX"><path d="M659.164 147.645H292.54c-31.86 0-57.687 25.863-57.687 57.765v16.809h482V205.41c0-31.902-25.829-57.765-57.688-57.765Zm-371.39 56.738c-6.848 0-12.399-5.559-12.399-12.418 0-6.856 5.55-12.414 12.398-12.414 6.844 0 12.399 5.558 12.399 12.414 0 6.86-5.555 12.418-12.399 12.418Zm43.351 0c-6.848 0-12.398-5.559-12.398-12.418 0-6.856 5.55-12.414 12.398-12.414s12.398 5.558 12.398 12.414c0 6.86-5.55 12.418-12.398 12.418Zm43.355 0c-6.847 0-12.398-5.559-12.398-12.418 0-6.856 5.55-12.414 12.398-12.414s12.399 5.558 12.399 12.414c0 6.86-5.55 12.418-12.399 12.418Zm0 0"/></clipPath><clipPath id="bY"><path d="M234 147h280v76H234Zm0 0"/></clipPath><clipPath id="bZ"><path d="M659.164 147.645H292.54c-31.86 0-57.687 25.863-57.687 57.765v16.809h482V205.41c0-31.902-25.829-57.765-57.688-57.765Zm-371.39 56.738c-6.848 0-12.399-5.559-12.399-12.418 0-6.856 5.55-12.414 12.398-12.414 6.844 0 12.399 5.558 12.399 12.414 0 6.86-5.555 12.418-12.399 12.418Zm43.351 0c-6.848 0-12.398-5.559-12.398-12.418 0-6.856 5.55-12.414 12.398-12.414s12.398 5.558 12.398 12.414c0 6.86-5.55 12.418-12.398 12.418Zm43.355 0c-6.847 0-12.398-5.559-12.398-12.418 0-6.856 5.55-12.414 12.398-12.414s12.399 5.558 12.399 12.414c0 6.86-5.55 12.418-12.399 12.418Zm0 0"/></clipPath><clipPath id="ca"><path d="M234 147h293v76H234Zm0 0"/></clipPath><clipPath id="cb"><path d="M659.164 147.645H292.54c-31.86 0-57.687 25.863-57.687 57.765v16.809h482V205.41c0-31.902-25.829-57.765-57.688-57.765Zm-371.39 56.738c-6.848 0-12.399-5.559-12.399-12.418 0-6.856 5.55-12.414 12.398-12.414 6.844 0 12.399 5.558 12.399 12.414 0 6.86-5.555 12.418-12.399 12.418Zm43.351 0c-6.848 0-12.398-5.559-12.398-12.418 0-6.856 5.55-12.414 12.398-12.414s12.398 5.558 12.398 12.414c0 6.86-5.55 12.418-12.398 12.418Zm43.355 0c-6.847 0-12.398-5.559-12.398-12.418 0-6.856 5.55-12.414 12.398-12.414s12.399 5.558 12.399 12.414c0 6.86-5.55 12.418-12.399 12.418Zm0 0"/></clipPath><clipPath id="cc"><path d="M234 147h305v76H234Zm0 0"/></clipPath><clipPath id="cd"><path d="M659.164 147.645H292.54c-31.86 0-57.687 25.863-57.687 57.765v16.809h482V205.41c0-31.902-25.829-57.765-57.688-57.765Zm-371.39 56.738c-6.848 0-12.399-5.559-12.399-12.418 0-6.856 5.55-12.414 12.398-12.414 6.844 0 12.399 5.558 12.399 12.414 0 6.86-5.555 12.418-12.399 12.418Zm43.351 0c-6.848 0-12.398-5.559-12.398-12.418 0-6.856 5.55-12.414 12.398-12.414s12.398 5.558 12.398 12.414c0 6.86-5.55 12.418-12.398 12.418Zm43.355 0c-6.847 0-12.398-5.559-12.398-12.418 0-6.856 5.55-12.414 12.398-12.414s12.399 5.558 12.399 12.414c0 6.86-5.55 12.418-12.399 12.418Zm0 0"/></clipPath><clipPath id="ce"><path d="M234 147h318v76H234Zm0 0"/></clipPath><clipPath id="cf"><path d="M659.164 147.645H292.54c-31.86 0-57.687 25.863-57.687 57.765v16.809h482V205.41c0-31.902-25.829-57.765-57.688-57.765Zm-371.39 56.738c-6.848 0-12.399-5.559-12.399-12.418 0-6.856 5.55-12.414 12.398-12.414 6.844 0 12.399 5.558 12.399 12.414 0 6.86-5.555 12.418-12.399 12.418Zm43.351 0c-6.848 0-12.398-5.559-12.398-12.418 0-6.856 5.55-12.414 12.398-12.414s12.398 5.558 12.398 12.414c0 6.86-5.55 12.418-12.398 12.418Zm43.355 0c-6.847 0-12.398-5.559-12.398-12.418 0-6.856 5.55-12.414 12.398-12.414s12.399 5.558 12.399 12.414c0 6.86-5.55 12.418-12.399 12.418Zm0 0"/></clipPath><clipPath id="cg"><path d="M234 147h330v76H234Zm0 0"/></clipPath><clipPath id="ch"><path d="M659.164 147.645H292.54c-31.86 0-57.687 25.863-57.687 57.765v16.809h482V205.41c0-31.902-25.829-57.765-57.688-57.765Zm-371.39 56.738c-6.848 0-12.399-5.559-12.399-12.418 0-6.856 5.55-12.414 12.398-12.414 6.844 0 12.399 5.558 12.399 12.414 0 6.86-5.555 12.418-12.399 12.418Zm43.351 0c-6.848 0-12.398-5.559-12.398-12.418 0-6.856 5.55-12.414 12.398-12.414s12.398 5.558 12.398 12.414c0 6.86-5.55 12.418-12.398 12.418Zm43.355 0c-6.847 0-12.398-5.559-12.398-12.418 0-6.856 5.55-12.414 12.398-12.414s12.399 5.558 12.399 12.414c0 6.86-5.55 12.418-12.399 12.418Zm0 0"/></clipPath><clipPath id="ci"><path d="M234 147h343v76H234Zm0 0"/></clipPath><clipPath id="cj"><path d="M659.164 147.645H292.54c-31.86 0-57.687 25.863-57.687 57.765v16.809h482V205.41c0-31.902-25.829-57.765-57.688-57.765Zm-371.39 56.738c-6.848 0-12.399-5.559-12.399-12.418 0-6.856 5.55-12.414 12.398-12.414 6.844 0 12.399 5.558 12.399 12.414 0 6.86-5.555 12.418-12.399 12.418Zm43.351 0c-6.848 0-12.398-5.559-12.398-12.418 0-6.856 5.55-12.414 12.398-12.414s12.398 5.558 12.398 12.414c0 6.86-5.55 12.418-12.398 12.418Zm43.355 0c-6.847 0-12.398-5.559-12.398-12.418 0-6.856 5.55-12.414 12.398-12.414s12.399 5.558 12.399 12.414c0 6.86-5.55 12.418-12.399 12.418Zm0 0"/></clipPath><clipPath id="ck"><path d="M234 147h355v76H234Zm0 0"/></clipPath><clipPath id="cl"><path d="M659.164 147.645H292.54c-31.86 0-57.687 25.863-57.687 57.765v16.809h482V205.41c0-31.902-25.829-57.765-57.688-57.765Zm-371.39 56.738c-6.848 0-12.399-5.559-12.399-12.418 0-6.856 5.55-12.414 12.398-12.414 6.844 0 12.399 5.558 12.399 12.414 0 6.86-5.555 12.418-12.399 12.418Zm43.351 0c-6.848 0-12.398-5.559-12.398-12.418 0-6.856 5.55-12.414 12.398-12.414s12.398 5.558 12.398 12.414c0 6.86-5.55 12.418-12.398 12.418Zm43.355 0c-6.847 0-12.398-5.559-12.398-12.418 0-6.856 5.55-12.414 12.398-12.414s12.399 5.558 12.399 12.414c0 6.86-5.55 12.418-12.399 12.418Zm0 0"/></clipPath><clipPath id="cm"><path d="M234 147h368v76H234Zm0 0"/></clipPath><clipPath id="cn"><path d="M659.164 147.645H292.54c-31.86 0-57.687 25.863-57.687 57.765v16.809h482V205.41c0-31.902-25.829-57.765-57.688-57.765Zm-371.39 56.738c-6.848 0-12.399-5.559-12.399-12.418 0-6.856 5.55-12.414 12.398-12.414 6.844 0 12.399 5.558 12.399 12.414 0 6.86-5.555 12.418-12.399 12.418Zm43.351 0c-6.848 0-12.398-5.559-12.398-12.418 0-6.856 5.55-12.414 12.398-12.414s12.398 5.558 12.398 12.414c0 6.86-5.55 12.418-12.398 12.418Zm43.355 0c-6.847 0-12.398-5.559-12.398-12.418 0-6.856 5.55-12.414 12.398-12.414s12.399 5.558 12.399 12.414c0 6.86-5.55 12.418-12.399 12.418Zm0 0"/></clipPath><clipPath id="co"><path d="M234 147h380v76H234Zm0 0"/></clipPath><clipPath id="cp"><path d="M659.164 147.645H292.54c-31.86 0-57.687 25.863-57.687 57.765v16.809h482V205.41c0-31.902-25.829-57.765-57.688-57.765Zm-371.39 56.738c-6.848 0-12.399-5.559-12.399-12.418 0-6.856 5.55-12.414 12.398-12.414 6.844 0 12.399 5.558 12.399 12.414 0 6.86-5.555 12.418-12.399 12.418Zm43.351 0c-6.848 0-12.398-5.559-12.398-12.418 0-6.856 5.55-12.414 12.398-12.414s12.398 5.558 12.398 12.414c0 6.86-5.55 12.418-12.398 12.418Zm43.355 0c-6.847 0-12.398-5.559-12.398-12.418 0-6.856 5.55-12.414 12.398-12.414s12.399 5.558 12.399 12.414c0 6.86-5.55 12.418-12.399 12.418Zm0 0"/></clipPath><clipPath id="cq"><path d="M234 147h392v76H234Zm0 0"/></clipPath><clipPath id="cr"><path d="M659.164 147.645H292.54c-31.86 0-57.687 25.863-57.687 57.765v16.809h482V205.41c0-31.902-25.829-57.765-57.688-57.765Zm-371.39 56.738c-6.848 0-12.399-5.559-12.399-12.418 0-6.856 5.55-12.414 12.398-12.414 6.844 0 12.399 5.558 12.399 12.414 0 6.86-5.555 12.418-12.399 12.418Zm43.351 0c-6.848 0-12.398-5.559-12.398-12.418 0-6.856 5.55-12.414 12.398-12.414s12.398 5.558 12.398 12.414c0 6.86-5.55 12.418-12.398 12.418Zm43.355 0c-6.847 0-12.398-5.559-12.398-12.418 0-6.856 5.55-12.414 12.398-12.414s12.399 5.558 12.399 12.414c0 6.86-5.55 12.418-12.399 12.418Zm0 0"/></clipPath><clipPath id="cs"><path d="M234 147h405v76H234Zm0 0"/></clipPath><clipPath id="ct"><path d="M659.164 147.645H292.54c-31.86 0-57.687 25.863-57.687 57.765v16.809h482V205.41c0-31.902-25.829-57.765-57.688-57.765Zm-371.39 56.738c-6.848 0-12.399-5.559-12.399-12.418 0-6.856 5.55-12.414 12.398-12.414 6.844 0 12.399 5.558 12.399 12.414 0 6.86-5.555 12.418-12.399 12.418Zm43.351 0c-6.848 0-12.398-5.559-12.398-12.418 0-6.856 5.55-12.414 12.398-12.414s12.398 5.558 12.398 12.414c0 6.86-5.55 12.418-12.398 12.418Zm43.355 0c-6.847 0-12.398-5.559-12.398-12.418 0-6.856 5.55-12.414 12.398-12.414s12.399 5.558 12.399 12.414c0 6.86-5.55 12.418-12.399 12.418Zm0 0"/></clipPath><clipPath id="cu"><path d="M234 147h417v76H234Zm0 0"/></clipPath><clipPath id="cv"><path d="M659.164 147.645H292.54c-31.86 0-57.687 25.863-57.687 57.765v16.809h482V205.41c0-31.902-25.829-57.765-57.688-57.765Zm-371.39 56.738c-6.848 0-12.399-5.559-12.399-12.418 0-6.856 5.55-12.414 12.398-12.414 6.844 0 12.399 5.558 12.399 12.414 0 6.86-5.555 12.418-12.399 12.418Zm43.351 0c-6.848 0-12.398-5.559-12.398-12.418 0-6.856 5.55-12.414 12.398-12.414s12.398 5.558 12.398 12.414c0 6.86-5.55 12.418-12.398 12.418Zm43.355 0c-6.847 0-12.398-5.559-12.398-12.418 0-6.856 5.55-12.414 12.398-12.414s12.399 5.558 12.399 12.414c0 6.86-5.55 12.418-12.399 12.418Zm0 0"/></clipPath><clipPath id="cw"><path d="M234 147h430v76H234Zm0 0"/></clipPath><clipPath id="cx"><path d="M659.164 147.645H292.54c-31.86 0-57.687 25.863-57.687 57.765v16.809h482V205.41c0-31.902-25.829-57.765-57.688-57.765Zm-371.39 56.738c-6.848 0-12.399-5.559-12.399-12.418 0-6.856 5.55-12.414 12.398-12.414 6.844 0 12.399 5.558 12.399 12.414 0 6.86-5.555 12.418-12.399 12.418Zm43.351 0c-6.848 0-12.398-5.559-12.398-12.418 0-6.856 5.55-12.414 12.398-12.414s12.398 5.558 12.398 12.414c0 6.86-5.55 12.418-12.398 12.418Zm43.355 0c-6.847 0-12.398-5.559-12.398-12.418 0-6.856 5.55-12.414 12.398-12.414s12.399 5.558 12.399 12.414c0 6.86-5.55 12.418-12.399 12.418Zm0 0"/></clipPath><clipPath id="cy"><path d="M234 147h442v76H234Zm0 0"/></clipPath><clipPath id="cz"><path d="M659.164 147.645H292.54c-31.86 0-57.687 25.863-57.687 57.765v16.809h482V205.41c0-31.902-25.829-57.765-57.688-57.765Zm-371.39 56.738c-6.848 0-12.399-5.559-12.399-12.418 0-6.856 5.55-12.414 12.398-12.414 6.844 0 12.399 5.558 12.399 12.414 0 6.86-5.555 12.418-12.399 12.418Zm43.351 0c-6.848 0-12.398-5.559-12.398-12.418 0-6.856 5.55-12.414 12.398-12.414s12.398 5.558 12.398 12.414c0 6.86-5.55 12.418-12.398 12.418Zm43.355 0c-6.847 0-12.398-5.559-12.398-12.418 0-6.856 5.55-12.414 12.398-12.414s12.399 5.558 12.399 12.414c0 6.86-5.55 12.418-12.399 12.418Zm0 0"/></clipPath><clipPath id="cA"><path d="M234 147h455v76H234Zm0 0"/></clipPath><clipPath id="cB"><path d="M659.164 147.645H292.54c-31.86 0-57.687 25.863-57.687 57.765v16.809h482V205.41c0-31.902-25.829-57.765-57.688-57.765Zm-371.39 56.738c-6.848 0-12.399-5.559-12.399-12.418 0-6.856 5.55-12.414 12.398-12.414 6.844 0 12.399 5.558 12.399 12.414 0 6.86-5.555 12.418-12.399 12.418Zm43.351 0c-6.848 0-12.398-5.559-12.398-12.418 0-6.856 5.55-12.414 12.398-12.414s12.398 5.558 12.398 12.414c0 6.86-5.55 12.418-12.398 12.418Zm43.355 0c-6.847 0-12.398-5.559-12.398-12.418 0-6.856 5.55-12.414 12.398-12.414s12.399 5.558 12.399 12.414c0 6.86-5.55 12.418-12.399 12.418Zm0 0"/></clipPath><clipPath id="cC"><path d="M243 147h458v76H243Zm0 0"/></clipPath><clipPath id="cD"><path d="M659.164 147.645H292.54c-31.86 0-57.687 25.863-57.687 57.765v16.809h482V205.41c0-31.902-25.829-57.765-57.688-57.765Zm-371.39 56.738c-6.848 0-12.399-5.559-12.399-12.418 0-6.856 5.55-12.414 12.398-12.414 6.844 0 12.399 5.558 12.399 12.414 0 6.86-5.555 12.418-12.399 12.418Zm43.351 0c-6.848 0-12.398-5.559-12.398-12.418 0-6.856 5.55-12.414 12.398-12.414s12.398 5.558 12.398 12.414c0 6.86-5.55 12.418-12.398 12.418Zm43.355 0c-6.847 0-12.398-5.559-12.398-12.418 0-6.856 5.55-12.414 12.398-12.414s12.399 5.558 12.399 12.414c0 6.86-5.55 12.418-12.399 12.418Zm0 0"/></clipPath><clipPath id="cE"><path d="M256 147h458v76H256Zm0 0"/></clipPath><clipPath id="cF"><path d="M659.164 147.645H292.54c-31.86 0-57.687 25.863-57.687 57.765v16.809h482V205.41c0-31.902-25.829-57.765-57.688-57.765Zm-371.39 56.738c-6.848 0-12.399-5.559-12.399-12.418 0-6.856 5.55-12.414 12.398-12.414 6.844 0 12.399 5.558 12.399 12.414 0 6.86-5.555 12.418-12.399 12.418Zm43.351 0c-6.848 0-12.398-5.559-12.398-12.418 0-6.856 5.55-12.414 12.398-12.414s12.398 5.558 12.398 12.414c0 6.86-5.55 12.418-12.398 12.418Zm43.355 0c-6.847 0-12.398-5.559-12.398-12.418 0-6.856 5.55-12.414 12.398-12.414s12.399 5.558 12.399 12.414c0 6.86-5.55 12.418-12.399 12.418Zm0 0"/></clipPath><clipPath id="cG"><path d="M268 147h449v76H268Zm0 0"/></clipPath><clipPath id="cH"><path d="M659.164 147.645H292.54c-31.86 0-57.687 25.863-57.687 57.765v16.809h482V205.41c0-31.902-25.829-57.765-57.688-57.765Zm-371.39 56.738c-6.848 0-12.399-5.559-12.399-12.418 0-6.856 5.55-12.414 12.398-12.414 6.844 0 12.399 5.558 12.399 12.414 0 6.86-5.555 12.418-12.399 12.418Zm43.351 0c-6.848 0-12.398-5.559-12.398-12.418 0-6.856 5.55-12.414 12.398-12.414s12.398 5.558 12.398 12.414c0 6.86-5.55 12.418-12.398 12.418Zm43.355 0c-6.847 0-12.398-5.559-12.398-12.418 0-6.856 5.55-12.414 12.398-12.414s12.399 5.558 12.399 12.414c0 6.86-5.55 12.418-12.399 12.418Zm0 0"/></clipPath><clipPath id="cI"><path d="M281 147h436v76H281Zm0 0"/></clipPath><clipPath id="cJ"><path d="M659.164 147.645H292.54c-31.86 0-57.687 25.863-57.687 57.765v16.809h482V205.41c0-31.902-25.829-57.765-57.688-57.765Zm-371.39 56.738c-6.848 0-12.399-5.559-12.399-12.418 0-6.856 5.55-12.414 12.398-12.414 6.844 0 12.399 5.558 12.399 12.414 0 6.86-5.555 12.418-12.399 12.418Zm43.351 0c-6.848 0-12.398-5.559-12.398-12.418 0-6.856 5.55-12.414 12.398-12.414s12.398 5.558 12.398 12.414c0 6.86-5.55 12.418-12.398 12.418Zm43.355 0c-6.847 0-12.398-5.559-12.398-12.418 0-6.856 5.55-12.414 12.398-12.414s12.399 5.558 12.399 12.414c0 6.86-5.55 12.418-12.399 12.418Zm0 0"/></clipPath><clipPath id="cK"><path d="M293 147h424v76H293Zm0 0"/></clipPath><clipPath id="cL"><path d="M659.164 147.645H292.54c-31.86 0-57.687 25.863-57.687 57.765v16.809h482V205.41c0-31.902-25.829-57.765-57.688-57.765Zm-371.39 56.738c-6.848 0-12.399-5.559-12.399-12.418 0-6.856 5.55-12.414 12.398-12.414 6.844 0 12.399 5.558 12.399 12.414 0 6.86-5.555 12.418-12.399 12.418Zm43.351 0c-6.848 0-12.398-5.559-12.398-12.418 0-6.856 5.55-12.414 12.398-12.414s12.398 5.558 12.398 12.414c0 6.86-5.55 12.418-12.398 12.418Zm43.355 0c-6.847 0-12.398-5.559-12.398-12.418 0-6.856 5.55-12.414 12.398-12.414s12.399 5.558 12.399 12.414c0 6.86-5.55 12.418-12.399 12.418Zm0 0"/></clipPath><clipPath id="cM"><path d="M306 147h411v76H306Zm0 0"/></clipPath><clipPath id="cN"><path d="M659.164 147.645H292.54c-31.86 0-57.687 25.863-57.687 57.765v16.809h482V205.41c0-31.902-25.829-57.765-57.688-57.765Zm-371.39 56.738c-6.848 0-12.399-5.559-12.399-12.418 0-6.856 5.55-12.414 12.398-12.414 6.844 0 12.399 5.558 12.399 12.414 0 6.86-5.555 12.418-12.399 12.418Zm43.351 0c-6.848 0-12.398-5.559-12.398-12.418 0-6.856 5.55-12.414 12.398-12.414s12.398 5.558 12.398 12.414c0 6.86-5.55 12.418-12.398 12.418Zm43.355 0c-6.847 0-12.398-5.559-12.398-12.418 0-6.856 5.55-12.414 12.398-12.414s12.399 5.558 12.399 12.414c0 6.86-5.55 12.418-12.399 12.418Zm0 0"/></clipPath><clipPath id="cO"><path d="M318 147h399v76H318Zm0 0"/></clipPath><clipPath id="cP"><path d="M659.164 147.645H292.54c-31.86 0-57.687 25.863-57.687 57.765v16.809h482V205.41c0-31.902-25.829-57.765-57.688-57.765Zm-371.39 56.738c-6.848 0-12.399-5.559-12.399-12.418 0-6.856 5.55-12.414 12.398-12.414 6.844 0 12.399 5.558 12.399 12.414 0 6.86-5.555 12.418-12.399 12.418Zm43.351 0c-6.848 0-12.398-5.559-12.398-12.418 0-6.856 5.55-12.414 12.398-12.414s12.398 5.558 12.398 12.414c0 6.86-5.55 12.418-12.398 12.418Zm43.355 0c-6.847 0-12.398-5.559-12.398-12.418 0-6.856 5.55-12.414 12.398-12.414s12.399 5.558 12.399 12.414c0 6.86-5.55 12.418-12.399 12.418Zm0 0"/></clipPath><clipPath id="cQ"><path d="M331 147h386v76H331Zm0 0"/></clipPath><clipPath id="cR"><path d="M659.164 147.645H292.54c-31.86 0-57.687 25.863-57.687 57.765v16.809h482V205.41c0-31.902-25.829-57.765-57.688-57.765Zm-371.39 56.738c-6.848 0-12.399-5.559-12.399-12.418 0-6.856 5.55-12.414 12.398-12.414 6.844 0 12.399 5.558 12.399 12.414 0 6.86-5.555 12.418-12.399 12.418Zm43.351 0c-6.848 0-12.398-5.559-12.398-12.418 0-6.856 5.55-12.414 12.398-12.414s12.398 5.558 12.398 12.414c0 6.86-5.55 12.418-12.398 12.418Zm43.355 0c-6.847 0-12.398-5.559-12.398-12.418 0-6.856 5.55-12.414 12.398-12.414s12.399 5.558 12.399 12.414c0 6.86-5.55 12.418-12.399 12.418Zm0 0"/></clipPath><clipPath id="cS"><path d="M342 147h375v76H342Zm0 0"/></clipPath><clipPath id="cT"><path d="M659.164 147.645H292.54c-31.86 0-57.687 25.863-57.687 57.765v16.809h482V205.41c0-31.902-25.829-57.765-57.688-57.765Zm-371.39 56.738c-6.848 0-12.399-5.559-12.399-12.418 0-6.856 5.55-12.414 12.398-12.414 6.844 0 12.399 5.558 12.399 12.414 0 6.86-5.555 12.418-12.399 12.418Zm43.351 0c-6.848 0-12.398-5.559-12.398-12.418 0-6.856 5.55-12.414 12.398-12.414s12.398 5.558 12.398 12.414c0 6.86-5.55 12.418-12.398 12.418Zm43.355 0c-6.847 0-12.398-5.559-12.398-12.418 0-6.856 5.55-12.414 12.398-12.414s12.399 5.558 12.399 12.414c0 6.86-5.55 12.418-12.399 12.418Zm0 0"/></clipPath><clipPath id="cU"><path d="M355 147h362v76H355Zm0 0"/></clipPath><clipPath id="cV"><path d="M659.164 147.645H292.54c-31.86 0-57.687 25.863-57.687 57.765v16.809h482V205.41c0-31.902-25.829-57.765-57.688-57.765Zm-371.39 56.738c-6.848 0-12.399-5.559-12.399-12.418 0-6.856 5.55-12.414 12.398-12.414 6.844 0 12.399 5.558 12.399 12.414 0 6.86-5.555 12.418-12.399 12.418Zm43.351 0c-6.848 0-12.398-5.559-12.398-12.418 0-6.856 5.55-12.414 12.398-12.414s12.398 5.558 12.398 12.414c0 6.86-5.55 12.418-12.398 12.418Zm43.355 0c-6.847 0-12.398-5.559-12.398-12.418 0-6.856 5.55-12.414 12.398-12.414s12.399 5.558 12.399 12.414c0 6.86-5.55 12.418-12.399 12.418Zm0 0"/></clipPath><clipPath id="cW"><path d="M367 147h350v76H367Zm0 0"/></clipPath><clipPath id="cX"><path d="M659.164 147.645H292.54c-31.86 0-57.687 25.863-57.687 57.765v16.809h482V205.41c0-31.902-25.829-57.765-57.688-57.765Zm-371.39 56.738c-6.848 0-12.399-5.559-12.399-12.418 0-6.856 5.55-12.414 12.398-12.414 6.844 0 12.399 5.558 12.399 12.414 0 6.86-5.555 12.418-12.399 12.418Zm43.351 0c-6.848 0-12.398-5.559-12.398-12.418 0-6.856 5.55-12.414 12.398-12.414s12.398 5.558 12.398 12.414c0 6.86-5.55 12.418-12.398 12.418Zm43.355 0c-6.847 0-12.398-5.559-12.398-12.418 0-6.856 5.55-12.414 12.398-12.414s12.399 5.558 12.399 12.414c0 6.86-5.55 12.418-12.399 12.418Zm0 0"/></clipPath><clipPath id="cY"><path d="M380 147h337v76H380Zm0 0"/></clipPath><clipPath id="cZ"><path d="M659.164 147.645H292.54c-31.86 0-57.687 25.863-57.687 57.765v16.809h482V205.41c0-31.902-25.829-57.765-57.688-57.765Zm-371.39 56.738c-6.848 0-12.399-5.559-12.399-12.418 0-6.856 5.55-12.414 12.398-12.414 6.844 0 12.399 5.558 12.399 12.414 0 6.86-5.555 12.418-12.399 12.418Zm43.351 0c-6.848 0-12.398-5.559-12.398-12.418 0-6.856 5.55-12.414 12.398-12.414s12.398 5.558 12.398 12.414c0 6.86-5.55 12.418-12.398 12.418Zm43.355 0c-6.847 0-12.398-5.559-12.398-12.418 0-6.856 5.55-12.414 12.398-12.414s12.399 5.558 12.399 12.414c0 6.86-5.55 12.418-12.399 12.418Zm0 0"/></clipPath><clipPath id="da"><path d="M392 147h325v76H392Zm0 0"/></clipPath><clipPath id="db"><path d="M659.164 147.645H292.54c-31.86 0-57.687 25.863-57.687 57.765v16.809h482V205.41c0-31.902-25.829-57.765-57.688-57.765Zm-371.39 56.738c-6.848 0-12.399-5.559-12.399-12.418 0-6.856 5.55-12.414 12.398-12.414 6.844 0 12.399 5.558 12.399 12.414 0 6.86-5.555 12.418-12.399 12.418Zm43.351 0c-6.848 0-12.398-5.559-12.398-12.418 0-6.856 5.55-12.414 12.398-12.414s12.398 5.558 12.398 12.414c0 6.86-5.55 12.418-12.398 12.418Zm43.355 0c-6.847 0-12.398-5.559-12.398-12.418 0-6.856 5.55-12.414 12.398-12.414s12.399 5.558 12.399 12.414c0 6.86-5.55 12.418-12.399 12.418Zm0 0"/></clipPath><clipPath id="dc"><path d="M404 147h313v76H404Zm0 0"/></clipPath><clipPath id="dd"><path d="M659.164 147.645H292.54c-31.86 0-57.687 25.863-57.687 57.765v16.809h482V205.41c0-31.902-25.829-57.765-57.688-57.765Zm-371.39 56.738c-6.848 0-12.399-5.559-12.399-12.418 0-6.856 5.55-12.414 12.398-12.414 6.844 0 12.399 5.558 12.399 12.414 0 6.86-5.555 12.418-12.399 12.418Zm43.351 0c-6.848 0-12.398-5.559-12.398-12.418 0-6.856 5.55-12.414 12.398-12.414s12.398 5.558 12.398 12.414c0 6.86-5.55 12.418-12.398 12.418Zm43.355 0c-6.847 0-12.398-5.559-12.398-12.418 0-6.856 5.55-12.414 12.398-12.414s12.399 5.558 12.399 12.414c0 6.86-5.55 12.418-12.399 12.418Zm0 0"/></clipPath><clipPath id="de"><path d="M417 147h300v76H417Zm0 0"/></clipPath><clipPath id="df"><path d="M659.164 147.645H292.54c-31.86 0-57.687 25.863-57.687 57.765v16.809h482V205.41c0-31.902-25.829-57.765-57.688-57.765Zm-371.39 56.738c-6.848 0-12.399-5.559-12.399-12.418 0-6.856 5.55-12.414 12.398-12.414 6.844 0 12.399 5.558 12.399 12.414 0 6.86-5.555 12.418-12.399 12.418Zm43.351 0c-6.848 0-12.398-5.559-12.398-12.418 0-6.856 5.55-12.414 12.398-12.414s12.398 5.558 12.398 12.414c0 6.86-5.55 12.418-12.398 12.418Zm43.355 0c-6.847 0-12.398-5.559-12.398-12.418 0-6.856 5.55-12.414 12.398-12.414s12.399 5.558 12.399 12.414c0 6.86-5.55 12.418-12.399 12.418Zm0 0"/></clipPath><clipPath id="dg"><path d="M429 147h288v76H429Zm0 0"/></clipPath><clipPath id="dh"><path d="M659.164 147.645H292.54c-31.86 0-57.687 25.863-57.687 57.765v16.809h482V205.41c0-31.902-25.829-57.765-57.688-57.765Zm-371.39 56.738c-6.848 0-12.399-5.559-12.399-12.418 0-6.856 5.55-12.414 12.398-12.414 6.844 0 12.399 5.558 12.399 12.414 0 6.86-5.555 12.418-12.399 12.418Zm43.351 0c-6.848 0-12.398-5.559-12.398-12.418 0-6.856 5.55-12.414 12.398-12.414s12.398 5.558 12.398 12.414c0 6.86-5.55 12.418-12.398 12.418Zm43.355 0c-6.847 0-12.398-5.559-12.398-12.418 0-6.856 5.55-12.414 12.398-12.414s12.399 5.558 12.399 12.414c0 6.86-5.55 12.418-12.399 12.418Zm0 0"/></clipPath><clipPath id="di"><path d="M442 147h275v76H442Zm0 0"/></clipPath><clipPath id="dj"><path d="M659.164 147.645H292.54c-31.86 0-57.687 25.863-57.687 57.765v16.809h482V205.41c0-31.902-25.829-57.765-57.688-57.765Zm-371.39 56.738c-6.848 0-12.399-5.559-12.399-12.418 0-6.856 5.55-12.414 12.398-12.414 6.844 0 12.399 5.558 12.399 12.414 0 6.86-5.555 12.418-12.399 12.418Zm43.351 0c-6.848 0-12.398-5.559-12.398-12.418 0-6.856 5.55-12.414 12.398-12.414s12.398 5.558 12.398 12.414c0 6.86-5.55 12.418-12.398 12.418Zm43.355 0c-6.847 0-12.398-5.559-12.398-12.418 0-6.856 5.55-12.414 12.398-12.414s12.399 5.558 12.399 12.414c0 6.86-5.55 12.418-12.399 12.418Zm0 0"/></clipPath><clipPath id="dk"><path d="M454 147h263v76H454Zm0 0"/></clipPath><clipPath id="dl"><path d="M659.164 147.645H292.54c-31.86 0-57.687 25.863-57.687 57.765v16.809h482V205.41c0-31.902-25.829-57.765-57.688-57.765Zm-371.39 56.738c-6.848 0-12.399-5.559-12.399-12.418 0-6.856 5.55-12.414 12.398-12.414 6.844 0 12.399 5.558 12.399 12.414 0 6.86-5.555 12.418-12.399 12.418Zm43.351 0c-6.848 0-12.398-5.559-12.398-12.418 0-6.856 5.55-12.414 12.398-12.414s12.398 5.558 12.398 12.414c0 6.86-5.55 12.418-12.398 12.418Zm43.355 0c-6.847 0-12.398-5.559-12.398-12.418 0-6.856 5.55-12.414 12.398-12.414s12.399 5.558 12.399 12.414c0 6.86-5.55 12.418-12.399 12.418Zm0 0"/></clipPath><clipPath id="dm"><path d="M467 147h250v76H467Zm0 0"/></clipPath><clipPath id="dn"><path d="M659.164 147.645H292.54c-31.86 0-57.687 25.863-57.687 57.765v16.809h482V205.41c0-31.902-25.829-57.765-57.688-57.765Zm-371.39 56.738c-6.848 0-12.399-5.559-12.399-12.418 0-6.856 5.55-12.414 12.398-12.414 6.844 0 12.399 5.558 12.399 12.414 0 6.86-5.555 12.418-12.399 12.418Zm43.351 0c-6.848 0-12.398-5.559-12.398-12.418 0-6.856 5.55-12.414 12.398-12.414s12.398 5.558 12.398 12.414c0 6.86-5.55 12.418-12.398 12.418Zm43.355 0c-6.847 0-12.398-5.559-12.398-12.418 0-6.856 5.55-12.414 12.398-12.414s12.399 5.558 12.399 12.414c0 6.86-5.55 12.418-12.399 12.418Zm0 0"/></clipPath><clipPath id="do"><path d="M479 147h238v76H479Zm0 0"/></clipPath><clipPath id="dp"><path d="M659.164 147.645H292.54c-31.86 0-57.687 25.863-57.687 57.765v16.809h482V205.41c0-31.902-25.829-57.765-57.688-57.765Zm-371.39 56.738c-6.848 0-12.399-5.559-12.399-12.418 0-6.856 5.55-12.414 12.398-12.414 6.844 0 12.399 5.558 12.399 12.414 0 6.86-5.555 12.418-12.399 12.418Zm43.351 0c-6.848 0-12.398-5.559-12.398-12.418 0-6.856 5.55-12.414 12.398-12.414s12.398 5.558 12.398 12.414c0 6.86-5.55 12.418-12.398 12.418Zm43.355 0c-6.847 0-12.398-5.559-12.398-12.418 0-6.856 5.55-12.414 12.398-12.414s12.399 5.558 12.399 12.414c0 6.86-5.55 12.418-12.399 12.418Zm0 0"/></clipPath><clipPath id="dq"><path d="M492 147h225v76H492Zm0 0"/></clipPath><clipPath id="dr"><path d="M659.164 147.645H292.54c-31.86 0-57.687 25.863-57.687 57.765v16.809h482V205.41c0-31.902-25.829-57.765-57.688-57.765Zm-371.39 56.738c-6.848 0-12.399-5.559-12.399-12.418 0-6.856 5.55-12.414 12.398-12.414 6.844 0 12.399 5.558 12.399 12.414 0 6.86-5.555 12.418-12.399 12.418Zm43.351 0c-6.848 0-12.398-5.559-12.398-12.418 0-6.856 5.55-12.414 12.398-12.414s12.398 5.558 12.398 12.414c0 6.86-5.55 12.418-12.398 12.418Zm43.355 0c-6.847 0-12.398-5.559-12.398-12.418 0-6.856 5.55-12.414 12.398-12.414s12.399 5.558 12.399 12.414c0 6.86-5.55 12.418-12.399 12.418Zm0 0"/></clipPath><clipPath id="ds"><path d="M294.84 316.543h269.937v20.687H294.84Zm0 0"/></clipPath><clipPath id="dt"><path d="M302 316.543h262.777v20.687H302Zm0 0"/></clipPath><clipPath id="du"><path d="M314 316.543h250.777v20.687H314Zm0 0"/></clipPath><clipPath id="dv"><path d="M327 316.543h237.777v20.687H327Zm0 0"/></clipPath><clipPath id="dw"><path d="M339 316.543h225.777v20.687H339Zm0 0"/></clipPath><clipPath id="dx"><path d="M352 316.543h212.777v20.687H352Zm0 0"/></clipPath><clipPath id="dy"><path d="M364 316.543h200.777v20.687H364Zm0 0"/></clipPath><clipPath id="dz"><path d="M377 316.543h187.777v20.687H377Zm0 0"/></clipPath><clipPath id="dA"><path d="M389 316.543h175.777v20.687H389Zm0 0"/></clipPath></defs><path fill="#4EA8F1" d="M1235.52 717.438a2.425 2.425 0 0 1-2.422-2.426V603.918c0-.844.441-1.629 1.16-2.07a2.425 2.425 0 0 1 2.363-.09l108.672 55.547a2.423 2.423 0 0 1 1.32 2.16c0 .91-.508 1.746-1.32 2.16l-108.672 55.547a2.45 2.45 0 0 1-1.101.265Zm2.421-109.563v103.176l100.922-51.586ZM848.613 646.266a2.422 2.422 0 0 1-2.351-1.848 2.424 2.424 0 0 1 1.23-2.727c9.95-5.199 30.196-15.777 44.75-23.18 27.89-14.187 43.73-26.062 47.09-35.28a15.249 15.249 0 0 0-3.691-15.692 15.573 15.573 0 0 0-16.743-3.637c-14.492 4.907-46.117 29.934-60.812 42.485-7.223 6.164-17.465 14.207-22.926 18.449a2.425 2.425 0 0 1-3.402-.43 2.43 2.43 0 0 1 .43-3.406c5.43-4.215 15.609-12.203 22.757-18.309.434-.363 43.418-36.953 62.403-43.382a20.513 20.513 0 0 1 21.757 4.847 20.119 20.119 0 0 1 4.778 20.735c-3.899 10.71-19.61 22.77-49.446 37.941-14.539 7.402-34.765 17.961-44.703 23.16-.347.18-.73.274-1.12.274Zm0 0"/><path fill="#90D1F4" d="M859.855 622.008a2.43 2.43 0 0 1-2.312-1.715 2.428 2.428 0 0 1 .957-2.719c.578-.386.73-1.168.344-1.742a1.252 1.252 0 0 0-1.739-.344 1.259 1.259 0 0 0-.34 1.739 2.42 2.42 0 1 1-4.008 2.719 6.106 6.106 0 0 1 1.641-8.466 6.085 6.085 0 0 1 8.454 1.641c1.882 2.793 1.152 6.582-1.633 8.465a2.392 2.392 0 0 1-1.364.422ZM889.863 601.723c-1.062 0-2-.696-2.312-1.715a2.422 2.422 0 0 1 .957-2.715 1.26 1.26 0 0 0 .336-1.746 1.243 1.243 0 0 0-1.734-.332 1.253 1.253 0 0 0-.337 1.734 2.429 2.429 0 0 1-1.828 3.797 2.426 2.426 0 0 1-2.183-1.082 6.104 6.104 0 0 1 1.668-8.426 6.088 6.088 0 0 1 8.43 1.594 6.12 6.12 0 0 1-1.637 8.477 2.382 2.382 0 0 1-1.36.414ZM920.063 581.95a2.428 2.428 0 0 1-1.355-4.434 1.252 1.252 0 0 0-.462-2.27c-.324-.07-.664 0-.933.192a1.255 1.255 0 0 0-.336 1.742 2.427 2.427 0 0 1-.66 3.367 2.42 2.42 0 0 1-3.36-.656 6.106 6.106 0 0 1 .45-7.418 6.09 6.09 0 0 1 7.273-1.485 6.102 6.102 0 0 1 3.308 6.653 6.04 6.04 0 0 1-2.566 3.89 2.397 2.397 0 0 1-1.36.418Zm0 0"/><path fill="#4EA8F1" d="M816.45 851.719c-.782 0-1.555-.004-2.337-.016-109.3-1.277-197.058-90.687-196.441-200.137.613-109.453 89.371-197.87 198.68-197.914.765 0 1.527.004 2.296.012 109.293 1.277 197.051 90.68 196.446 200.121-.606 109.445-89.344 197.867-198.645 197.934Zm-.098-393.219c-107.098-.074-194.07 86.637-194.454 193.879-.386 107.246 85.957 194.582 193.055 195.277 107.102.696 194.567-85.515 195.57-192.754 1.004-107.238-84.836-195.074-191.93-196.386-.745-.012-1.5-.016-2.241-.016Zm0 0"/><path fill="#90D1F4" d="M816.441 832.426c-.707 0-1.402-.004-2.105-.016-72.598-.828-137.543-45.363-164.559-112.84-27.015-67.476-10.777-144.605 41.141-195.422 33.93-33.492 79.875-51.937 127.512-51.187 98.718 1.125 178 81.867 177.453 180.723-.547 98.855-80.719 178.714-179.442 178.742Zm-.113-354.63c-96.05.044-174.043 77.743-174.574 173.919-.531 96.18 76.594 174.738 172.637 175.847.683.008 1.367.012 2.05.012 96.051-.043 174.04-77.738 174.575-173.918.53-96.18-76.594-174.738-172.637-175.847-.688-.008-1.371-.012-2.05-.012ZM1096.18 369.75a36.408 36.408 0 0 1-24.11-10.191c-12.734-11.86-19.195-32.329-19.195-60.844 0-28.516 6.457-48.985 19.191-60.836a35.708 35.708 0 0 1 25.137-10.164l106.055-.004v-7.684h-67.192a2.421 2.421 0 0 1-2.421-2.422v-40.812a16.374 16.374 0 0 1 1.214-6.23c3.141-7.622 15.668-25.344 64.164-25.344 48.5 0 61.016 17.719 64.153 25.34a16.185 16.185 0 0 1 1.226 6.234v76.969c-.02 18.629-15.097 33.722-33.699 33.746h-59.305c-25.226.027-45.668 20.496-45.691 45.758v34.054c0 .645-.258 1.266-.715 1.72a2.85 2.85 0 0 1-1.722.706l-26.239-.02c-.054.004-.347.024-.851.024Zm.277-137.203a31.948 31.948 0 0 0-21.187 8.973c-11.645 10.921-17.551 30.164-17.551 57.195 0 27.113 5.937 46.39 17.648 57.293a30.95 30.95 0 0 0 21.488 8.875l22.86-.008 1.148.008v-31.621c.032-27.934 22.637-50.575 50.535-50.606h59.309c15.93-.02 28.836-12.945 28.855-28.894v-76.969c.004-1.5-.285-2.988-.855-4.379v-.004c-2.762-6.715-14.105-22.34-59.68-22.34-45.574 0-56.918 15.625-59.687 22.34a11.551 11.551 0 0 0-.852 4.383v38.387h67.192a2.425 2.425 0 0 1 2.422 2.425v12.532a2.424 2.424 0 0 1-2.422 2.422H1097.03c-.035 0-.234-.012-.574-.012Zm68.375-29.332c-8.258.004-14.953-6.7-14.953-14.969 0-8.273 6.695-14.976 14.953-14.976s14.953 6.707 14.95 14.976c-.009 8.262-6.696 14.961-14.95 14.969Zm0-25.094c-5.582-.004-10.11 4.527-10.11 10.121-.003 5.59 4.524 10.121 10.106 10.125 5.582 0 10.11-4.531 10.113-10.12-.007-5.59-4.527-10.118-10.109-10.126Zm0 0"/><path fill="#4EA8F1" d="M1204.34 442.746c-48.508 0-61.027-17.723-64.156-25.344a16.19 16.19 0 0 1-1.227-6.238v-76.969c.02-18.625 15.098-33.722 33.7-33.742h59.308c25.223-.027 45.668-20.496 45.695-45.754v-34.058c0-.649.258-1.266.715-1.72a3.255 3.255 0 0 1 1.723-.706l26.156.02a35.763 35.763 0 0 1 25.035 10.167c12.738 11.86 19.2 32.328 19.2 60.84 0 28.516-6.462 48.985-19.2 60.84a35.718 35.718 0 0 1-25.137 10.164l-106.054.004v7.68h67.195a2.425 2.425 0 0 1 2.422 2.425v40.81a16.255 16.255 0 0 1-1.219 6.237c-3.137 7.621-15.664 25.344-64.156 25.344Zm-31.684-137.441c-15.93.015-28.836 12.941-28.855 28.89v76.97c-.004 1.507.285 3 .855 4.39 2.762 6.715 14.106 22.34 59.684 22.34 45.562 0 56.914-15.625 59.68-22.34.57-1.395.859-2.883.851-4.39V372.78h-67.191a2.425 2.425 0 0 1-2.422-2.426v-12.53a2.425 2.425 0 0 1 2.422-2.427h108.652a31.441 31.441 0 0 0 21.762-8.957c11.644-10.918 17.55-30.168 17.55-57.199 0-27.11-5.94-46.387-17.652-57.289a30.827 30.827 0 0 0-21.484-8.871c-.059.004-.121.004-.176.004l-23.828-.004v31.617c-.031 27.938-22.64 50.574-50.54 50.606Zm65.871 109.382c-8.257 0-14.949-6.707-14.949-14.976 0-8.27 6.695-14.969 14.957-14.969 8.258 0 14.95 6.707 14.95 14.977-.008 8.265-6.7 14.96-14.958 14.969Zm0-25.097c-5.582.004-10.105 4.535-10.105 10.125s4.527 10.12 10.11 10.12c5.581.005 10.109-4.526 10.109-10.116-.008-5.59-4.532-10.121-10.114-10.125ZM1369.64 625.418a2.425 2.425 0 0 1-2.421-2.426c0-.62.11-62.844.316-64.476a2.423 2.423 0 0 1 4.813.547c-.16 2.609-.285 61.414-.285 63.93a2.422 2.422 0 0 1-2.422 2.425ZM1675.148 704.805a2.421 2.421 0 0 1-2.421-2.422c0-4-.09-88.567-.235-91.125a2.422 2.422 0 1 1 4.824-.438c.176 1.649.254 90.672.254 91.563a2.424 2.424 0 0 1-2.422 2.422Zm0 0"/><path fill="#4EA8F1" d="M1369.64 709.61a2.425 2.425 0 0 1-2.421-2.426c0-.868.09-87.375.304-89.008a2.46 2.46 0 0 1 2.72-2.086 2.43 2.43 0 0 1 2.085 2.722c-.156 2.59-.265 84.508-.265 88.372a2.422 2.422 0 0 1-2.422 2.425Zm0 0"/><path fill="#4EA8F1" d="M1522.39 854.781c-85.562 0-155.175-36.004-155.175-80.261 0-.793.082-79.887.254-81.532a2.421 2.421 0 0 1 4.816 0c4.258 40.035 70.192 71.39 150.106 71.39 79.918 0 145.855-31.355 150.113-71.39a2.423 2.423 0 0 1 2.406-2.16c1.235 0 2.274.934 2.406 2.16.176 1.653.254 80.739.254 81.532 0 44.257-69.617 80.261-155.18 80.261Zm-150.206-145.55c-.075 22.878-.13 62.816-.13 65.289 0 41.585 67.442 75.414 150.337 75.414 82.894 0 150.332-33.829 150.332-75.414 0-2.56-.047-42.399-.121-65.286-17.372 34.668-78.348 59.996-150.211 59.996-71.868 0-132.836-25.335-150.207-60ZM1522.39 689.676c-82.355 0-150.402-33.266-154.921-75.727a2.43 2.43 0 0 1 .96-2.265 2.421 2.421 0 0 1 2.442-.262 2.433 2.433 0 0 1 1.414 2.015c4.258 40.032 70.192 71.387 150.106 71.387 79.918 0 145.855-31.355 150.113-71.386.07-.88.61-1.649 1.41-2.016a2.428 2.428 0 0 1 2.445.262 2.418 2.418 0 0 1 .957 2.265c-4.515 42.461-72.562 75.727-154.925 75.727Zm0 0"/><path fill="#90D1F4" d="M1522.39 610.121c-85.43 0-154.933-34.09-154.933-75.988 0-41.899 69.504-75.985 154.934-75.985 85.43 0 154.941 34.086 154.941 75.985 0 41.898-69.504 75.988-154.941 75.988Zm0-147.121c-81.355 0-150.09 32.574-150.09 71.133 0 38.558 68.735 71.137 150.09 71.137 81.36 0 150.098-32.579 150.098-71.137 0-38.559-68.734-71.133-150.097-71.133Zm0 0"/><path fill="#4EA8F1" d="M1675.148 617.832a2.423 2.423 0 0 1-2.421-2.418l-.22-56.582a2.422 2.422 0 0 1 2.411-2.434h.012a2.425 2.425 0 0 1 2.422 2.414l.218 56.586a2.43 2.43 0 0 1-2.414 2.434Zm0 0"/><path fill="#90D1F4" d="M1627.156 636.164c-7.261-.012-13.144-5.902-13.152-13.172a2.421 2.421 0 1 1 4.844 0c-.004 4.598 3.718 8.328 8.308 8.328a8.314 8.314 0 0 0 8.313-8.324c0-4.598-3.723-8.324-8.313-8.324a2.425 2.425 0 0 1 0-4.848c7.266 0 13.153 5.895 13.153 13.168 0 7.274-5.887 13.172-13.153 13.172ZM1627.156 715.55c-7.261-.007-13.144-5.898-13.152-13.167a2.422 2.422 0 1 1 4.844 0c-.004 4.597 3.718 8.324 8.308 8.324a8.314 8.314 0 0 0 8.313-8.324c0-4.598-3.723-8.324-8.313-8.324a2.425 2.425 0 0 1 0-4.848c7.266 0 13.153 5.894 13.153 13.172 0 7.273-5.887 13.168-13.153 13.168ZM1627.156 802.715c-7.261-.008-13.14-5.899-13.152-13.168a2.422 2.422 0 1 1 4.844 0c0 4.594 3.722 8.32 8.312 8.32 4.59-.004 8.313-3.73 8.309-8.328 0-4.594-3.723-8.32-8.313-8.32a2.424 2.424 0 0 1 0-4.848 13.156 13.156 0 0 1 11.461 6.563 13.19 13.19 0 0 1 0 13.218 13.148 13.148 0 0 1-11.46 6.563Zm0 0"/><path fill="#4EA8F1" d="M977.64 507.664a2.424 2.424 0 0 1-1.523-4.309l18.844-15.23a2.418 2.418 0 0 1 3.383.375 2.43 2.43 0 0 1-.336 3.395l-18.844 15.23c-.43.348-.969.54-1.523.54Zm37.68-30.465a2.428 2.428 0 0 1-1.523-4.313l18.844-15.23a2.43 2.43 0 0 1 2.406-.398 2.43 2.43 0 0 1 1.531 1.898 2.42 2.42 0 0 1-.89 2.27l-18.844 15.234c-.43.348-.969.54-1.52.54ZM1053 446.73a2.426 2.426 0 0 1-1.523-4.309l18.843-15.23a2.422 2.422 0 0 1 3.95 1.497 2.435 2.435 0 0 1-.903 2.273l-18.84 15.23a2.38 2.38 0 0 1-1.523.54Zm37.684-30.46a2.426 2.426 0 0 1-2.282-1.614c-.34-.969-.039-2.05.762-2.695L1108 396.727a2.42 2.42 0 0 1 3.375.382 2.43 2.43 0 0 1-.328 3.387l-18.84 15.234c-.43.352-.965.54-1.52.54ZM659.164 424.805H292.54c-33.184-.035-60.07-26.961-60.11-60.188V229.383a2.425 2.425 0 0 1 2.423-2.426 2.425 2.425 0 0 1 2.421 2.426v135.234c.036 30.547 24.758 55.305 55.266 55.34h366.625c30.508-.035 55.234-24.789 55.27-55.34V229.383a2.422 2.422 0 1 1 4.843 0v135.234c-.039 33.227-26.933 60.153-60.113 60.188Zm-179.082-35.043H294.84a2.425 2.425 0 0 1-2.422-2.426v-20.688a2.425 2.425 0 0 1 2.422-2.425h185.242a2.422 2.422 0 0 1 2.422 2.425v20.688a2.422 2.422 0 0 1-2.422 2.426Zm-182.82-4.852h180.402v-15.836H297.262Zm359.601-95.355H294.84a2.425 2.425 0 0 1-2.422-2.426V266.44a2.425 2.425 0 0 1 2.422-2.425h362.023a2.422 2.422 0 0 1 2.422 2.425v20.688a2.421 2.421 0 0 1-2.422 2.422Zm-359.601-4.852h357.18v-15.84h-357.18ZM716.855 224.645a2.419 2.419 0 0 1-2.421-2.422V205.41c-.036-30.55-24.762-55.308-55.27-55.34H292.54c-30.508.035-55.23 24.79-55.266 55.34v16.813a2.421 2.421 0 1 1-4.843 0V205.41c.035-33.226 26.925-60.152 60.11-60.191h366.624c33.184.039 60.074 26.965 60.113 60.191v16.813a2.421 2.421 0 0 1-2.422 2.422Zm0 0"/><path fill="#90D1F4" d="M716.855 224.645H234.852a2.421 2.421 0 0 1-2.422-2.422V205.41c.035-33.226 26.925-60.152 60.11-60.191h366.624c33.184.039 60.074 26.965 60.113 60.191v16.813a2.421 2.421 0 0 1-2.422 2.422Zm-479.582-4.848h477.16V205.41c-.035-30.55-24.761-55.308-55.269-55.34H292.54c-30.508.035-55.23 24.79-55.266 55.34Zm137.207-12.992c-8.183 0-14.816-6.64-14.816-14.836 0-8.196 6.633-14.84 14.816-14.844 8.184 0 14.82 6.645 14.82 14.84-.007 8.191-6.636 14.832-14.82 14.84Zm0-24.828c-5.507 0-9.976 4.472-9.976 9.988 0 5.52 4.469 9.992 9.976 9.992 5.512 0 9.98-4.473 9.98-9.992-.007-5.512-4.472-9.98-9.98-9.988Zm-43.355 24.828c-8.184 0-14.816-6.645-14.816-14.84s6.636-14.836 14.82-14.84c8.183 0 14.82 6.645 14.82 14.84-.008 8.191-6.64 14.832-14.824 14.84Zm0-24.828c-5.508 0-9.973 4.476-9.973 9.992 0 5.515 4.47 9.988 9.977 9.988 5.512 0 9.976-4.473 9.976-9.992-.007-5.516-4.468-9.985-9.98-9.988Zm-43.355 24.828c-8.184 0-14.817-6.645-14.817-14.84.004-8.195 6.637-14.836 14.82-14.84 8.184 0 14.82 6.645 14.82 14.84-.007 8.191-6.64 14.836-14.823 14.84Zm0-24.828c-5.508 0-9.973 4.472-9.973 9.992 0 5.515 4.469 9.988 9.976 9.988 5.512 0 9.977-4.473 9.977-9.992-.004-5.516-4.469-9.985-9.98-9.988ZM564.777 339.656H294.84a2.424 2.424 0 0 1-2.422-2.422v-20.687a2.425 2.425 0 0 1 2.422-2.426h269.937a2.425 2.425 0 0 1 2.422 2.426v20.687a2.424 2.424 0 0 1-2.422 2.422Zm-267.515-4.847h265.093v-15.836H297.262ZM744.547 761.496a2.42 2.42 0 0 1-2.035-1.11l-57.317-88.831a2.43 2.43 0 0 1 .38-3.086c1.26-1.184 32.19-29.196 142.155-43.614a2.43 2.43 0 0 1 2.262.961l14.582 19.723a2.44 2.44 0 0 1 .348 2.215c-.606 1.816-15.211 44.789-48.223 73.816a381.514 381.514 0 0 1-50.926 39.59 2.423 2.423 0 0 1-1.226.336ZM690.44 670.75l54.844 84.996a430.212 430.212 0 0 0 48.215-37.82c29.043-25.531 43.813-63.41 46.406-70.535l-12.96-17.54c-94.134 12.516-129.137 35.31-136.505 40.899Zm0 0"/><path fill="#4EA8F1" d="M1225.031 640.066H1023.45a2.422 2.422 0 0 1-2.422-2.425 2.422 2.422 0 0 1 2.422-2.426h201.582a2.425 2.425 0 0 1 2.422 2.426 2.425 2.425 0 0 1-2.422 2.425ZM610.129 640.066H456.586c-17.152-.02-31.055-13.941-31.07-31.12V432.448a2.422 2.422 0 0 1 2.421-2.426 2.421 2.421 0 0 1 2.418 2.426v176.496c.016 14.5 11.75 26.254 26.23 26.27H610.13a2.425 2.425 0 0 1 2.422 2.426 2.425 2.425 0 0 1-2.422 2.425Zm0 0"/><path fill="#4EA8F1" d="M611.25 683.71H456.586c-41.215-.046-74.613-33.491-74.66-74.765V432.45a2.422 2.422 0 1 1 4.844 0v176.496c.043 38.594 31.277 69.871 69.816 69.918H611.25a2.425 2.425 0 0 1 0 4.848ZM1225.031 683.71h-203.773a2.421 2.421 0 0 1-2.422-2.42 2.422 2.422 0 0 1 2.422-2.427h203.77a2.422 2.422 0 0 1 2.421 2.426 2.421 2.421 0 0 1-2.422 2.422Zm0 0"/><g clip-path="url(#a)"><g clip-path="url(#b)"><path fill="#90D1F4" d="m355.262 850.191 454.422-455.035 2.394 2.395-454.422 455.035Zm0 0"/></g></g><g clip-path="url(#c)"><g clip-path="url(#d)"><path fill="#90D1F4" d="m367.746 850.188 454.422-455.032 2.39 2.399-454.417 455.03Zm0 0"/></g></g><g clip-path="url(#e)"><g clip-path="url(#f)"><path fill="#90D1F4" d="m380.234 850.188 454.418-455.032 2.395 2.399-454.422 455.03Zm0 0"/></g></g><g clip-path="url(#g)"><g clip-path="url(#h)"><path fill="#90D1F4" d="M392.719 850.188 847.14 395.156l2.39 2.399-454.418 455.03Zm0 0"/></g></g><g clip-path="url(#i)"><g clip-path="url(#j)"><path fill="#90D1F4" d="m405.203 850.191 454.422-455.035 2.39 2.399-454.421 455.03Zm0 0"/></g></g><g clip-path="url(#k)"><g clip-path="url(#l)"><path fill="#90D1F4" d="m417.688 850.188 454.417-455.032 2.395 2.399-454.422 455.03Zm0 0"/></g></g><g clip-path="url(#m)"><g clip-path="url(#n)"><path fill="#90D1F4" d="m430.227 850.188 454.418-455.032 2.394 2.399-454.422 455.03Zm0 0"/></g></g><g clip-path="url(#o)"><g clip-path="url(#p)"><path fill="#90D1F4" d="m442.707 850.191 454.422-455.035 2.394 2.395-454.421 455.035Zm0 0"/></g></g><g clip-path="url(#q)"><g clip-path="url(#r)"><path fill="#90D1F4" d="m455.191 850.188 454.422-455.032 2.39 2.399-454.417 455.03Zm0 0"/></g></g><g clip-path="url(#s)"><g clip-path="url(#t)"><path fill="#90D1F4" d="m467.68 850.188 454.418-455.032 2.394 2.399-454.422 455.03Zm0 0"/></g></g><g clip-path="url(#u)"><g clip-path="url(#v)"><path fill="#90D1F4" d="m480.164 850.188 454.418-455.032 2.395 2.399-454.418 455.03Zm0 0"/></g></g><g clip-path="url(#w)"><g clip-path="url(#x)"><path fill="#90D1F4" d="M492.645 850.191 947.07 395.156l2.39 2.395-454.42 455.035Zm0 0"/></g></g><g clip-path="url(#y)"><g clip-path="url(#z)"><path fill="#90D1F4" d="M505.133 850.188 959.55 395.156l2.394 2.399-454.422 455.03Zm0 0"/></g></g><g clip-path="url(#A)"><g clip-path="url(#B)"><path fill="#90D1F4" d="M517.617 850.188 972.04 395.156l2.39 2.399-454.417 455.03Zm0 0"/></g></g><g clip-path="url(#C)"><g clip-path="url(#D)"><path fill="#90D1F4" d="m530.102 850.188 454.421-455.032 2.395 2.399-454.422 455.03Zm0 0"/></g></g><g clip-path="url(#E)"><g clip-path="url(#F)"><path fill="#90D1F4" d="m542.586 850.191 454.422-455.035 2.394 2.399-454.422 455.03Zm0 0"/></g></g><g clip-path="url(#G)"><g fill="#90D1F4" clip-path="url(#H)"><path d="m555.07 850.188 454.422-455.032 2.39 2.399-454.417 455.03ZM567.293 850.188l454.418-455.032 2.394 2.399-454.421 455.03ZM579.773 850.191l454.422-455.035 2.395 2.399-454.422 455.03ZM592.258 850.188l454.422-455.032 2.39 2.399-454.418 455.03ZM604.746 850.188l454.418-455.032 2.395 2.399-454.422 455.03ZM617.23 850.188l454.422-455.032 2.391 2.399-454.418 455.03Zm0 0"/></g></g><g clip-path="url(#I)"><g clip-path="url(#J)"><path fill="#90D1F4" d="m629.715 850.191 454.422-455.035 2.39 2.399-454.422 455.03Zm0 0"/></g></g><g clip-path="url(#K)"><g clip-path="url(#L)"><path fill="#90D1F4" d="m642.2 850.188 454.417-455.032 2.395 2.399-454.422 455.03Zm0 0"/></g></g><g clip-path="url(#M)"><g clip-path="url(#N)"><path fill="#90D1F4" d="m654.684 850.188 454.421-455.032 2.391 2.399-454.418 455.03Zm0 0"/></g></g><g clip-path="url(#O)"><g clip-path="url(#P)"><path fill="#90D1F4" d="m667.172 850.188 454.418-455.032 2.394 2.399-454.421 455.03Zm0 0"/></g></g><g clip-path="url(#Q)"><g clip-path="url(#R)"><path fill="#90D1F4" d="m679.652 850.191 454.422-455.035 2.395 2.399-454.422 455.03Zm0 0"/></g></g><g clip-path="url(#S)"><g clip-path="url(#T)"><path fill="#90D1F4" d="m692.137 850.188 454.422-455.032 2.39 2.399-454.418 455.03Zm0 0"/></g></g><g clip-path="url(#U)"><g clip-path="url(#V)"><path fill="#90D1F4" d="m703.496 850.191 454.422-455.035 2.39 2.395-454.421 455.035Zm0 0"/></g></g><g clip-path="url(#W)"><g clip-path="url(#X)"><path fill="#90D1F4" d="m715.98 850.191 454.422-455.035 2.395 2.399-454.422 455.03Zm0 0"/></g></g><g clip-path="url(#Y)"><g clip-path="url(#Z)"><path fill="#90D1F4" d="m728.465 850.188 454.422-455.032 2.39 2.399-454.418 455.03Zm0 0"/></g></g><g clip-path="url(#aa)"><g clip-path="url(#ab)"><path fill="#90D1F4" d="m740.953 850.188 454.418-455.032 2.395 2.399-454.422 455.03Zm0 0"/></g></g><g clip-path="url(#ac)"><g clip-path="url(#ad)"><path fill="#90D1F4" d="m753.434 850.191 454.421-455.035 2.395 2.399-454.422 455.03Zm0 0"/></g></g><g clip-path="url(#ae)"><g clip-path="url(#af)"><path fill="#90D1F4" d="m765.922 850.191 454.422-455.035 2.39 2.395-454.421 455.035Zm0 0"/></g></g><g clip-path="url(#ag)"><g clip-path="url(#ah)"><path fill="#90D1F4" d="m778.406 850.188 454.418-455.032 2.395 2.399-454.422 455.03Zm0 0"/></g></g><g clip-path="url(#ai)"><g clip-path="url(#aj)"><path fill="#90D1F4" d="m790.89 850.188 454.423-455.032 2.39 2.399-454.418 455.03Zm0 0"/></g></g><g clip-path="url(#ak)"><g clip-path="url(#al)"><path fill="#90D1F4" d="m803.375 850.191 454.422-455.035 2.39 2.395-454.421 455.035Zm0 0"/></g></g><g clip-path="url(#am)"><g clip-path="url(#an)"><path fill="#90D1F4" d="m815.86 850.191 454.421-455.035 2.395 2.395-454.422 455.035Zm0 0"/></g></g><g clip-path="url(#ao)"><g clip-path="url(#ap)"><path fill="#90D1F4" d="m828.344 850.188 454.422-455.032 2.39 2.399-454.418 455.03Zm0 0"/></g></g><g clip-path="url(#aq)"><g clip-path="url(#ar)"><path fill="#90D1F4" d="M840.883 850.188 1295.3 395.156l2.394 2.399-454.422 455.03Zm0 0"/></g></g><g clip-path="url(#as)"><g clip-path="url(#at)"><path fill="#90D1F4" d="m853.363 850.191 454.422-455.035 2.395 2.399-454.422 455.03Zm0 0"/></g></g><g clip-path="url(#au)"><g clip-path="url(#av)"><path fill="#90D1F4" d="m865.848 850.188 454.422-455.032 2.394 2.399-454.422 455.03Zm0 0"/></g></g><g clip-path="url(#aw)"><g clip-path="url(#ax)"><path fill="#90D1F4" d="m878.336 850.188 454.418-455.032 2.394 2.399-454.421 455.03Zm0 0"/></g></g><g clip-path="url(#ay)"><g fill="#90D1F4" clip-path="url(#az)"><path d="M861.95 454.125 1316.366-.906l2.395 2.394L864.34 456.52ZM874.434 454.125 1328.855-.906l2.391 2.394L876.828 456.52ZM886.969 454.125 1341.39-.906l2.394 2.394L889.36 456.523ZM899.453 454.125 1353.875-.906l2.39 2.394L901.849 456.52ZM911.938 454.125 1366.359-.906l2.395 2.394L914.332 456.52ZM924.426 454.125 1378.844-.906l2.394 2.394L926.816 456.52ZM936.906 454.125 1391.328-.906l2.395 2.394L939.3 456.523ZM949.39 454.125 1403.814-.906l2.394 2.394L951.785 456.52ZM961.879 454.125 1416.297-.906l2.394 2.394L964.27 456.52ZM974.363 454.125 1428.785-.906l2.39 2.394L976.759 456.52ZM986.848 454.125 1441.27-.906l2.394 2.394-454.422 455.035ZM999.332 454.125 1453.75-.906l2.395 2.394-454.422 455.032ZM1011.816 454.125 1466.238-.906l2.395 2.394L1014.21 456.52ZM1024.035 454.125 1478.457-.906l2.395 2.394-454.422 455.035ZM1036.52 454.125 1490.94-.906l2.391 2.394-454.418 455.032ZM1049.008 454.125 1503.426-.906l2.394 2.394-454.422 455.032Zm0 0"/></g></g><g clip-path="url(#aA)"><g clip-path="url(#aB)"><path fill="#90D1F4" d="M1061.492 454.125 1515.914-.906l2.39 2.394-454.417 455.032Zm0 0"/></g></g><g clip-path="url(#aC)"><g fill="#90D1F4" clip-path="url(#aD)"><path d="m1240.227 657.758 454.425-455.035 2.391 2.394-454.422 455.035ZM1252.71 657.754l454.423-455.031 2.394 2.398-454.422 455.031ZM1265.2 657.754l454.417-455.031 2.395 2.398-454.418 455.031ZM1277.68 657.758l454.425-455.035 2.391 2.394-454.422 455.035ZM1290.219 657.754l454.418-455.031 2.394 2.398-454.418 455.031ZM1302.703 657.754l454.422-455.031 2.395 2.398-454.422 455.031ZM1315.191 657.754l454.418-455.031 2.395 2.398-454.422 455.031ZM1327.672 657.758l454.422-455.035 2.394 2.394-454.422 455.035ZM1340.156 657.754l454.422-455.031 2.39 2.398-454.417 455.031ZM1352.645 657.754l454.418-455.031 2.394 2.398-454.422 455.031ZM1365.129 657.754l454.422-455.031 2.39 2.398-454.418 455.031Zm0 0"/></g></g><g clip-path="url(#aE)"><g clip-path="url(#aF)"><path fill="#90D1F4" d="m1377.613 657.754 454.422-455.031 2.39 2.394-454.421 455.035Zm0 0"/></g></g><g clip-path="url(#aG)"><g clip-path="url(#aH)"><path fill="#90D1F4" d="m1390.098 657.754 454.418-455.031 2.394 2.398-454.422 455.031Zm0 0"/></g></g><g clip-path="url(#aI)"><g clip-path="url(#aJ)"><path fill="#90D1F4" d="m1402.582 657.754 454.422-455.031 2.39 2.398-454.417 455.031Zm0 0"/></g></g><g clip-path="url(#aK)"><g clip-path="url(#aL)"><path fill="#90D1F4" d="m1415.07 657.754 454.418-455.031 2.395 2.398-454.422 455.031Zm0 0"/></g></g><g clip-path="url(#aM)"><g clip-path="url(#aN)"><path fill="#90D1F4" d="m1427.285 657.754 454.422-455.031 2.39 2.398-454.417 455.031Zm0 0"/></g></g><g clip-path="url(#aO)"><g clip-path="url(#aP)"><path fill="#90D1F4" d="m1439.77 657.754 454.421-455.031 2.395 2.398-454.422 455.031Zm0 0"/></g></g><g clip-path="url(#aQ)"><g clip-path="url(#aR)"><path fill="#90D1F4" d="m1452.258 657.754 454.418-455.031 2.394 2.398-454.422 455.031Zm0 0"/></g></g><g clip-path="url(#aS)"><g clip-path="url(#aT)"><path fill="#90D1F4" d="m1464.738 657.758 454.422-455.035 2.395 2.394-454.422 455.035Zm0 0"/></g></g><g clip-path="url(#aU)"><g clip-path="url(#aV)"><path fill="#90D1F4" d="m1477.223 657.754 454.422-455.031 2.394 2.398-454.422 455.031Zm0 0"/></g></g><g clip-path="url(#aW)"><g clip-path="url(#aX)"><path fill="#90D1F4" d="m1489.71 657.754 454.419-455.031 2.394 2.398-454.421 455.031Zm0 0"/></g></g><g clip-path="url(#aY)"><g clip-path="url(#aZ)"><path fill="#90D1F4" d="m1502.191 657.758 454.426-455.035 2.39 2.394-454.421 455.035Zm0 0"/></g></g><g clip-path="url(#ba)"><g clip-path="url(#bb)"><path fill="#90D1F4" d="m1514.68 657.758 454.422-455.035 2.394 2.394-454.422 455.035Zm0 0"/></g></g><g clip-path="url(#bc)"><g clip-path="url(#bd)"><path fill="#90D1F4" d="m1527.164 657.754 454.422-455.031 2.39 2.398-454.417 455.031Zm0 0"/></g></g><g clip-path="url(#be)"><g clip-path="url(#bf)"><path fill="#90D1F4" d="m1539.648 657.754 454.422-455.031 2.395 2.398-454.422 455.031Zm0 0"/></g></g><g clip-path="url(#bg)"><g clip-path="url(#bh)"><path fill="#90D1F4" d="m1552.133 657.754 454.422-455.031 2.394 2.394-454.422 455.035Zm0 0"/></g></g><g clip-path="url(#bi)"><g fill="#90D1F4" clip-path="url(#bj)"><path d="m1237.148 809.102 454.418-455.032 2.395 2.395-454.422 455.031ZM1249.633 809.102l454.422-455.032 2.39 2.395-454.418 455.031ZM1262.117 809.102l454.422-455.036 2.395 2.399-454.426 455.031ZM1274.602 809.102 1729.02 354.07l2.394 2.395-454.418 455.031ZM1287.086 809.102l454.422-455.032 2.394 2.395-454.422 455.031ZM1299.574 809.102l454.418-455.032 2.395 2.395-454.422 455.031ZM1312.055 809.102l454.422-455.036 2.394 2.399-454.422 455.031ZM1324.54 809.102l454.42-455.032 2.395 2.395-454.421 455.031ZM1337.027 809.102l454.418-455.032 2.395 2.395-454.422 455.031ZM1349.563 809.102l454.421-455.036 2.391 2.399-454.422 455.031ZM1362.047 809.102l454.418-455.032 2.394 2.395-454.421 455.031ZM1374.531 809.102l454.422-455.032 2.39 2.395-454.417 455.031Zm0 0"/></g></g><g clip-path="url(#bk)"><g clip-path="url(#bl)"><path fill="#90D1F4" d="m1387.02 809.102 454.418-455.032 2.394 2.395-454.422 455.031Zm0 0"/></g></g><g clip-path="url(#bm)"><g clip-path="url(#bn)"><path fill="#90D1F4" d="m1399.5 809.102 454.422-455.036 2.394 2.399-454.421 455.031Zm0 0"/></g></g><g clip-path="url(#bo)"><g clip-path="url(#bp)"><path fill="#90D1F4" d="m1411.984 809.102 454.422-455.032 2.39 2.395-454.417 455.031Zm0 0"/></g></g><g clip-path="url(#bq)"><g clip-path="url(#br)"><path fill="#90D1F4" d="M1424.473 809.102 1878.89 354.07l2.394 2.395-454.422 455.031Zm0 0"/></g></g><g clip-path="url(#bs)"><g clip-path="url(#bt)"><path fill="#90D1F4" d="m1436.957 809.102 454.422-455.032 2.39 2.395-454.417 455.031Zm0 0"/></g></g><g clip-path="url(#bu)"><g clip-path="url(#bv)"><path fill="#90D1F4" d="m1449.441 809.102 454.422-455.036 2.39 2.399-454.421 455.031Zm0 0"/></g></g><g clip-path="url(#bw)"><g clip-path="url(#bx)"><path fill="#90D1F4" d="m1461.926 809.102 454.418-455.032 2.394 2.395-454.422 455.031Zm0 0"/></g></g><g clip-path="url(#by)"><g clip-path="url(#bz)"><path fill="#90D1F4" d="m1474.41 809.102 454.422-455.032 2.39 2.395-454.417 455.031Zm0 0"/></g></g><g clip-path="url(#bA)"><g clip-path="url(#bB)"><path fill="#90D1F4" d="m1486.629 809.102 454.422-455.036 2.394 2.399-454.425 455.031Zm0 0"/></g></g><g clip-path="url(#bC)"><g clip-path="url(#bD)"><path fill="#90D1F4" d="m1499.113 809.102 454.418-455.032 2.395 2.395-454.418 455.031Zm0 0"/></g></g><g clip-path="url(#bE)"><g clip-path="url(#bF)"><path fill="#90D1F4" d="M1511.598 809.102 1966.02 354.07l2.394 2.395-454.422 455.031Zm0 0"/></g></g><g clip-path="url(#bG)"><g clip-path="url(#bH)"><path fill="#90D1F4" d="m1524.086 809.102 454.418-455.032 2.394 2.395-454.421 455.031Zm0 0"/></g></g><g clip-path="url(#bI)"><g clip-path="url(#bJ)"><path fill="#90D1F4" d="m1536.566 809.102 454.422-455.036 2.395 2.399-454.422 455.031Zm0 0"/></g></g><g clip-path="url(#bK)"><g clip-path="url(#bL)"><path fill="#90D1F4" d="m1549.05 809.102 454.423-455.032 2.394 2.395-454.422 455.031Zm0 0"/></g></g><g clip-path="url(#bM)"><g fill="#90D1F4" clip-path="url(#bN)"><path d="m426.484 939.445 454.418-455.03 2.395 2.397-454.422 455.032ZM438.965 939.45l454.422-455.036 2.394 2.399-454.422 455.03ZM451.453 939.445l454.418-455.03 2.395 2.397-454.422 455.032ZM463.938 939.445l454.417-455.03 2.395 2.397-454.418 455.032ZM476.418 939.45l454.426-455.036 2.39 2.399-454.422 455.03ZM488.906 939.45l454.422-455.036 2.395 2.399-454.426 455.03ZM501.441 939.445l454.422-455.03 2.39 2.397-454.417 455.032ZM513.93 939.445l454.418-455.03 2.394 2.397L516.32 941.844ZM526.41 939.45l454.422-455.036 2.395 2.395-454.422 455.035ZM538.895 939.445l454.421-455.03 2.391 2.397-454.418 455.032ZM551.383 939.445l454.418-455.03 2.394 2.397-454.422 455.032ZM563.867 939.445l454.422-455.03 2.39 2.397-454.417 455.032Zm0 0"/></g></g><g clip-path="url(#bO)"><g clip-path="url(#bP)"><path fill="#90D1F4" d="M-5.676 430.7 448.75-24.337l2.395 2.398L-3.281 433.099Zm0 0"/></g></g><g clip-path="url(#bQ)"><g clip-path="url(#bR)"><path fill="#90D1F4" d="M6.813 430.7 461.233-24.333l2.391 2.395L9.203 433.098Zm0 0"/></g></g><g clip-path="url(#bS)"><g clip-path="url(#bT)"><path fill="#90D1F4" d="M19.297 430.7 473.719-24.333l2.394 2.395L21.691 433.098Zm0 0"/></g></g><g clip-path="url(#bU)"><g clip-path="url(#bV)"><path fill="#90D1F4" d="M31.781 430.7 486.203-24.333l2.395 2.395L34.176 433.098Zm0 0"/></g></g><g clip-path="url(#bW)"><g clip-path="url(#bX)"><path fill="#90D1F4" d="M44.266 430.7 498.69-24.337l2.391 2.398L46.656 433.099Zm0 0"/></g></g><g clip-path="url(#bY)"><g clip-path="url(#bZ)"><path fill="#90D1F4" d="M56.75 430.7 511.172-24.337l2.394 2.398L59.145 433.099Zm0 0"/></g></g><g clip-path="url(#ca)"><g clip-path="url(#cb)"><path fill="#90D1F4" d="M69.29 430.7 523.71-24.337l2.392 2.398L71.68 433.094Zm0 0"/></g></g><g clip-path="url(#cc)"><g clip-path="url(#cd)"><path fill="#90D1F4" d="M81.77 430.7 536.195-24.337l2.395 2.398L84.164 433.099Zm0 0"/></g></g><g clip-path="url(#ce)"><g clip-path="url(#cf)"><path fill="#90D1F4" d="M94.258 430.7 548.68-24.337l2.394 2.398L96.648 433.099Zm0 0"/></g></g><g clip-path="url(#cg)"><g clip-path="url(#ch)"><path fill="#90D1F4" d="M106.742 430.7 561.164-24.333l2.39 2.395-454.421 455.035Zm0 0"/></g></g><g clip-path="url(#ci)"><g clip-path="url(#cj)"><path fill="#90D1F4" d="M119.227 430.7 573.648-24.333l2.395 2.395-454.422 455.035Zm0 0"/></g></g><g clip-path="url(#ck)"><g clip-path="url(#cl)"><path fill="#90D1F4" d="M131.71 430.7 586.134-24.337l2.394 2.398-454.425 455.036Zm0 0"/></g></g><g clip-path="url(#cm)"><g clip-path="url(#cn)"><path fill="#90D1F4" d="M144.195 430.7 598.621-24.337l2.395 2.398L146.59 433.099Zm0 0"/></g></g><g clip-path="url(#co)"><g clip-path="url(#cp)"><path fill="#90D1F4" d="M156.68 430.7 611.102-24.337l2.394 2.398-454.422 455.036Zm0 0"/></g></g><g clip-path="url(#cq)"><g clip-path="url(#cr)"><path fill="#90D1F4" d="M169.168 430.7 623.59-24.337l2.39 2.398L171.56 433.099Zm0 0"/></g></g><g clip-path="url(#cs)"><g clip-path="url(#ct)"><path fill="#90D1F4" d="M181.648 430.7 636.074-24.337l2.395 2.398-454.426 455.036Zm0 0"/></g></g><g clip-path="url(#cu)"><g clip-path="url(#cv)"><path fill="#90D1F4" d="M194.133 430.7 648.559-24.337l2.394 2.398-454.426 455.036Zm0 0"/></g></g><g clip-path="url(#cw)"><g clip-path="url(#cx)"><path fill="#90D1F4" d="M206.355 430.7 660.777-24.333l2.395 2.395-454.426 455.035Zm0 0"/></g></g><g clip-path="url(#cy)"><g clip-path="url(#cz)"><path fill="#90D1F4" d="M218.836 430.7 673.262-24.337l2.394 2.398L221.23 433.099Zm0 0"/></g></g><g clip-path="url(#cA)"><g clip-path="url(#cB)"><path fill="#90D1F4" d="M231.32 430.7 685.746-24.337l2.39 2.398-454.421 455.036Zm0 0"/></g></g><g clip-path="url(#cC)"><g clip-path="url(#cD)"><path fill="#90D1F4" d="M243.809 430.7 698.23-24.337l2.395 2.398-454.426 455.036Zm0 0"/></g></g><g clip-path="url(#cE)"><g clip-path="url(#cF)"><path fill="#90D1F4" d="M256.293 430.7 710.715-24.337l2.394 2.398-454.422 455.036Zm0 0"/></g></g><g clip-path="url(#cG)"><g clip-path="url(#cH)"><path fill="#90D1F4" d="M268.777 430.7 723.203-24.337l2.39 2.398-454.425 455.036Zm0 0"/></g></g><g clip-path="url(#cI)"><g clip-path="url(#cJ)"><path fill="#90D1F4" d="M281.262 430.7 735.684-24.333l2.394 2.395-454.422 455.035Zm0 0"/></g></g><g clip-path="url(#cK)"><g clip-path="url(#cL)"><path fill="#90D1F4" d="M293.746 430.7 748.168-24.333l2.394 2.395-454.421 455.035Zm0 0"/></g></g><g clip-path="url(#cM)"><g clip-path="url(#cN)"><path fill="#90D1F4" d="M306.234 430.7 760.656-24.337l2.395 2.398-454.426 455.036Zm0 0"/></g></g><g clip-path="url(#cO)"><g clip-path="url(#cP)"><path fill="#90D1F4" d="M318.715 430.7 773.14-24.337l2.394 2.398L321.11 433.099Zm0 0"/></g></g><g clip-path="url(#cQ)"><g clip-path="url(#cR)"><path fill="#90D1F4" d="M331.2 430.7 785.624-24.333l2.39 2.395-454.421 455.035Zm0 0"/></g></g><g clip-path="url(#cS)"><g clip-path="url(#cT)"><path fill="#90D1F4" d="M342.563 430.7 796.984-24.333l2.391 2.395-454.422 455.035Zm0 0"/></g></g><g clip-path="url(#cU)"><g clip-path="url(#cV)"><path fill="#90D1F4" d="M355.043 430.7 809.469-24.337l2.394 2.398-454.426 455.036Zm0 0"/></g></g><g clip-path="url(#cW)"><g clip-path="url(#cX)"><path fill="#90D1F4" d="M367.527 430.7 821.95-24.337l2.395 2.398-454.422 455.036Zm0 0"/></g></g><g clip-path="url(#cY)"><g clip-path="url(#cZ)"><path fill="#90D1F4" d="M380.016 430.7 834.437-24.333l2.395 2.395-454.426 455.035Zm0 0"/></g></g><g clip-path="url(#da)"><g clip-path="url(#db)"><path fill="#90D1F4" d="M392.5 430.7 846.922-24.337l2.394 2.398-454.421 455.032Zm0 0"/></g></g><g clip-path="url(#dc)"><g clip-path="url(#dd)"><path fill="#90D1F4" d="M404.984 430.7 859.41-24.337l2.39 2.398-454.425 455.036Zm0 0"/></g></g><g clip-path="url(#de)"><g clip-path="url(#df)"><path fill="#90D1F4" d="M417.469 430.7 871.89-24.333l2.39 2.395L419.86 433.098Zm0 0"/></g></g><g clip-path="url(#dg)"><g clip-path="url(#dh)"><path fill="#90D1F4" d="M429.953 430.7 884.375-24.333l2.395 2.395-454.422 455.035Zm0 0"/></g></g><g clip-path="url(#di)"><g clip-path="url(#dj)"><path fill="#90D1F4" d="M442.441 430.7 896.863-24.333l2.39 2.395-454.421 455.035Zm0 0"/></g></g><g clip-path="url(#dk)"><g clip-path="url(#dl)"><path fill="#90D1F4" d="M454.922 430.7 909.348-24.337l2.39 2.398-454.422 455.036Zm0 0"/></g></g><g clip-path="url(#dm)"><g clip-path="url(#dn)"><path fill="#90D1F4" d="M467.406 430.7 921.828-24.337l2.395 2.398L469.8 433.094Zm0 0"/></g></g><g clip-path="url(#do)"><g clip-path="url(#dp)"><path fill="#90D1F4" d="M479.945 430.7 934.367-24.333l2.395 2.395L482.34 433.098Zm0 0"/></g></g><g clip-path="url(#dq)"><g clip-path="url(#dr)"><path fill="#90D1F4" d="M492.426 430.7 946.852-24.337l2.394 2.398L494.82 433.099Zm0 0"/></g></g><g fill="#90D1F4" clip-path="url(#ds)"><path d="M127.617 496.176 582.04 41.145l2.39 2.394L130.013 498.57ZM140.102 496.176 594.523 41.14l2.395 2.398-454.422 455.035ZM152.586 496.176 607.004 41.145l2.394 2.394L154.98 498.57ZM165.07 496.176 619.492 41.145l2.395 2.394L167.465 498.57ZM177.559 496.176 631.977 41.145l2.394 2.394L179.953 498.57ZM190.04 496.176 644.46 41.14l2.395 2.398-454.421 455.035ZM202.523 496.176 656.945 41.145l2.395 2.394L204.918 498.57ZM215.012 496.176 669.43 41.145l2.394 2.394L217.402 498.57ZM227.496 496.176 681.918 41.145l2.394 2.394L229.892 498.57ZM240.031 496.176 694.45 41.145l2.395 2.394L242.422 498.57ZM252.516 496.176 706.938 41.145l2.39 2.394L254.91 498.57ZM265.004 496.176 719.422 41.145l2.394 2.394L267.395 498.57ZM277.484 496.176 731.906 41.145l2.395 2.394-454.422 455.035ZM289.969 496.176 744.39 41.145l2.39 2.394L292.363 498.57Zm0 0"/></g><g clip-path="url(#dt)"><path fill="#90D1F4" d="M302.457 496.176 756.875 41.145l2.395 2.394L304.848 498.57Zm0 0"/></g><g clip-path="url(#du)"><path fill="#90D1F4" d="M314.941 496.176 769.363 41.145l2.39 2.394L317.337 498.57Zm0 0"/></g><g clip-path="url(#dv)"><path fill="#90D1F4" d="M327.426 496.176 781.848 41.14l2.39 2.398L329.816 498.57Zm0 0"/></g><g clip-path="url(#dw)"><path fill="#90D1F4" d="M339.91 496.176 794.328 41.145l2.395 2.394L342.3 498.57Zm0 0"/></g><g clip-path="url(#dx)"><path fill="#90D1F4" d="M352.395 496.176 806.816 41.145l2.391 2.394L354.789 498.57Zm0 0"/></g><g clip-path="url(#dy)"><path fill="#90D1F4" d="M364.883 496.176 819.3 41.145l2.394 2.394L367.273 498.57Zm0 0"/></g><g clip-path="url(#dz)"><path fill="#90D1F4" d="M377.098 496.176 831.516 41.145l2.394 2.394L379.492 498.57Zm0 0"/></g><g clip-path="url(#dA)"><path fill="#90D1F4" d="M389.582 496.176 844.004 41.145l2.394 2.394L391.977 498.57Zm0 0"/></g></svg>